
<svg width="808" height="1007" viewBox="0 0 808 1007" fill="none" xmlns="http://www.w3.org/2000/svg">
<path d="M283.108 552.108C248.766 517.767 248.766 462.235 283.108 427.893L451.894 259.107C486.235 224.766 541.767 224.766 576.108 259.107L744.894 427.893C779.236 462.235 779.236 517.767 744.894 552.108L576.108 720.894C541.767 755.236 486.235 755.236 451.894 720.894L283.108 552.108Z" fill="#44B2AB"/>
<path opacity="0.1" d="M44.0636 251.945C19.6985 227.58 19.6985 188.181 44.0636 163.816L163.815 44.0645C188.18 19.6994 227.579 19.6994 251.944 44.0645L371.696 163.816C396.061 188.181 396.061 227.58 371.696 251.945L251.944 371.697C227.579 396.062 188.18 396.062 163.815 371.697L44.0636 251.945Z" fill="#44B2AB"/>
<path opacity="0.1" d="M44.1807 842.945C19.8157 818.58 19.8157 779.181 44.1808 754.816L163.933 635.065C188.298 610.699 227.697 610.699 252.062 635.065L371.813 754.816C396.179 779.181 396.178 818.58 371.813 842.945L252.062 962.697C227.697 987.062 188.298 987.062 163.933 962.697L44.1807 842.945Z" fill="#44B2AB"/>
<g filter="url(#filter0_d)">
<path d="M768.392 608.818H261.75C258.776 608.818 256.517 610.851 256.517 613.392V619.287C256.517 621.828 258.895 623.759 261.75 623.759H768.392C771.365 623.759 773.625 621.726 773.625 619.287V613.392C773.625 610.851 771.246 608.818 768.392 608.818Z" fill="black"/>
</g>
<g filter="url(#filter1_d)">
<path d="M727.625 358.688H302.64C297.414 358.688 293.039 362.264 293.039 366.759V609.226H737.105V366.657C737.105 362.264 732.851 358.688 727.625 358.688Z" fill="black"/>
</g>
<path d="M715.945 376.569H313.841C311.08 376.569 308.841 378.807 308.841 381.569V595.541C308.841 598.302 311.08 600.541 313.841 600.541H715.945C718.706 600.541 720.945 598.302 720.945 595.541V381.569C720.945 378.807 718.706 376.569 715.945 376.569Z" fill="url(#paint0_radial)"/>
<path d="M332.39 487.511H401.433C402.537 487.511 403.433 488.406 403.433 489.511V548.593C403.433 549.698 402.537 550.593 401.433 550.593H332.39C331.286 550.593 330.39 549.698 330.39 548.593V489.511C330.39 488.406 331.286 487.511 332.39 487.511Z" fill="#44B2AB"/>
<path d="M375.705 391.352H451.611C452.527 391.352 453.271 392.095 453.271 393.012C453.271 393.929 452.527 394.672 451.611 394.672H375.705C374.789 394.672 374.045 393.929 374.045 393.012C374.045 392.095 374.789 391.352 375.705 391.352Z" fill="#EAEAEA"/>
<path d="M332.049 391.352H369.958C370.875 391.352 371.618 392.095 371.618 393.012C371.618 393.929 370.875 394.672 369.958 394.672H332.049C331.132 394.672 330.389 393.929 330.389 393.012C330.389 392.095 331.132 391.352 332.049 391.352Z" fill="#EAEAEA"/>
<path d="M483.224 399.653H557.512C558.429 399.653 559.172 400.396 559.172 401.313C559.172 402.229 558.429 402.973 557.512 402.973H483.224C482.307 402.973 481.564 402.229 481.564 401.313C481.564 400.396 482.307 399.653 483.224 399.653Z" fill="#EAEAEA"/>
<path d="M454.929 399.653H475.053C475.97 399.653 476.713 400.396 476.713 401.313C476.713 402.229 475.97 402.973 475.053 402.973H454.929C454.012 402.973 453.269 402.229 453.269 401.313C453.269 400.396 454.012 399.653 454.929 399.653Z" fill="#F4AA53"/>
<path d="M382.172 399.653H420.081C420.998 399.653 421.742 400.396 421.742 401.313C421.742 402.229 420.998 402.973 420.081 402.973H382.172C381.255 402.973 380.512 402.229 380.512 401.313C380.512 400.396 381.255 399.653 382.172 399.653Z" fill="#F4AA53"/>
<path d="M652.994 399.653H701.413C702.33 399.653 703.073 400.396 703.073 401.313C703.073 402.229 702.33 402.973 701.413 402.973H652.994C652.077 402.973 651.334 402.229 651.334 401.313C651.334 400.396 652.077 399.653 652.994 399.653Z" fill="#EAEAEA"/>
<path d="M565.686 399.653H597.128C598.045 399.653 598.788 400.396 598.788 401.313C598.788 402.229 598.045 402.973 597.128 402.973H565.686C564.77 402.973 564.026 402.229 564.026 401.313C564.026 400.396 564.769 399.653 565.686 399.653Z" fill="#EAEAEA"/>
<path d="M460.59 391.352H498.499C499.416 391.352 500.159 392.095 500.159 393.012C500.159 393.929 499.416 394.672 498.499 394.672H460.59C459.673 394.672 458.93 393.929 458.93 393.012C458.93 392.095 459.673 391.352 460.59 391.352Z" fill="#EAEAEA"/>
<path d="M655.418 391.352H675.542C676.459 391.352 677.202 392.095 677.202 393.012C677.202 393.929 676.459 394.672 675.542 394.672H655.418C654.501 394.672 653.758 393.929 653.758 393.012C653.758 392.095 654.501 391.352 655.418 391.352Z" fill="#F4AA53"/>
<path d="M506.67 391.352H526.794C527.711 391.352 528.454 392.095 528.454 393.012C528.454 393.929 527.711 394.672 526.794 394.672H506.67C505.753 394.672 505.01 393.929 505.01 393.012C505.01 392.095 505.753 391.352 506.67 391.352Z" fill="#EAEAEA"/>
<path d="M332.049 399.653H341.664C342.58 399.653 343.324 400.396 343.324 401.313C343.324 402.229 342.58 402.973 341.664 402.973H332.049C331.132 402.973 330.389 402.229 330.389 401.313C330.389 400.396 331.132 399.653 332.049 399.653Z" fill="#F4AA53"/>
<path d="M595.124 391.352H644.48C645.585 391.352 646.48 392.247 646.48 393.352V393.502C646.48 394.607 645.585 395.502 644.48 395.502H595.124C594.02 395.502 593.124 394.607 593.124 393.502V393.352C593.124 392.247 594.02 391.352 595.124 391.352Z" fill="#EAEAEA"/>
<path d="M536.922 391.352H586.277C587.382 391.352 588.277 392.247 588.277 393.352V393.502C588.277 394.607 587.382 395.502 586.277 395.502H536.922C535.817 395.502 534.922 394.607 534.922 393.502V393.352C534.922 392.247 535.817 391.352 536.922 391.352Z" fill="#EAEAEA"/>
<path d="M435.638 399.653H439.718H446.759C447.675 399.653 448.419 400.396 448.419 401.313V401.313C448.419 402.229 447.675 402.973 446.759 402.973H439.718H435.638H425.826C424.909 402.973 424.166 402.229 424.166 401.313V401.313C424.166 400.396 424.909 399.653 425.826 399.653H435.638Z" fill="#F4AA53"/>
<path d="M348.221 399.653H375.621C376.538 399.653 377.281 400.396 377.281 401.313C377.281 402.229 376.538 402.973 375.621 402.973H348.221C347.304 402.973 346.561 402.229 346.561 401.313C346.561 400.396 347.304 399.653 348.221 399.653Z" fill="#F4AA53"/>
<path d="M606.444 398.822H643.673C644.778 398.822 645.673 399.718 645.673 400.822V400.972C645.673 402.077 644.778 402.972 643.673 402.972H606.444C605.339 402.972 604.444 402.077 604.444 400.972V400.822C604.444 399.718 605.339 398.822 606.444 398.822Z" fill="#EAEAEA"/>
<path d="M375.703 407.952H413.612C414.529 407.952 415.272 408.696 415.272 409.612C415.272 410.529 414.529 411.272 413.612 411.272H375.703C374.786 411.272 374.042 410.529 374.042 409.612C374.042 408.696 374.786 407.952 375.703 407.952Z" fill="#EAEAEA"/>
<path d="M332.049 407.952H369.958C370.875 407.952 371.618 408.696 371.618 409.612C371.618 410.529 370.875 411.272 369.958 411.272H332.049C331.132 411.272 330.389 410.529 330.389 409.612C330.389 408.696 331.132 407.952 332.049 407.952Z" fill="#EAEAEA"/>
<path d="M467.867 416.253H501.734C502.651 416.253 503.394 416.996 503.394 417.913C503.394 418.83 502.651 419.573 501.734 419.573H467.867C466.95 419.573 466.207 418.83 466.207 417.913C466.207 416.996 466.95 416.253 467.867 416.253Z" fill="#EAEAEA"/>
<path d="M426.635 416.253H459.694C460.611 416.253 461.354 416.996 461.354 417.913C461.354 418.83 460.611 419.573 459.694 419.573H426.635C425.718 419.573 424.975 418.83 424.975 417.913C424.975 416.996 425.718 416.253 426.635 416.253Z" fill="#EAEAEA"/>
<path d="M361.961 416.253H420.081C420.998 416.253 421.742 416.996 421.742 417.913C421.742 418.83 420.998 419.573 420.081 419.573H361.961C361.045 419.573 360.301 418.83 360.301 417.913C360.301 416.996 361.045 416.253 361.961 416.253Z" fill="#F4AA53"/>
<path d="M641.677 416.253H669.077C669.994 416.253 670.737 416.996 670.737 417.913C670.737 418.83 669.994 419.573 669.077 419.573H641.677C640.76 419.573 640.017 418.83 640.017 417.913C640.017 416.996 640.76 416.253 641.677 416.253Z" fill="#F4AA53"/>
<path d="M509.905 416.253H597.128C598.045 416.253 598.788 416.996 598.788 417.913C598.788 418.83 598.045 419.573 597.128 419.573H509.905C508.988 419.573 508.245 418.83 508.245 417.913C508.245 416.996 508.988 416.253 509.905 416.253Z" fill="#F4AA53"/>
<path d="M425.827 407.952H478.288C479.205 407.952 479.948 408.696 479.948 409.612C479.948 410.529 479.205 411.272 478.288 411.272H425.827C424.91 411.272 424.167 410.529 424.167 409.612C424.167 408.696 424.91 407.952 425.827 407.952Z" fill="#EAEAEA"/>
<path d="M486.459 407.952H526.794C527.711 407.952 528.454 408.696 528.454 409.612C528.454 410.529 527.711 411.272 526.794 411.272H486.459C485.542 411.272 484.799 410.529 484.799 409.612C484.799 408.696 485.542 407.952 486.459 407.952Z" fill="#EAEAEA"/>
<path d="M332.049 416.253H352.981C353.898 416.253 354.642 416.996 354.642 417.913C354.642 418.83 353.898 419.573 352.981 419.573H332.049C331.132 419.573 330.389 418.83 330.389 417.913C330.389 416.996 331.132 416.253 332.049 416.253Z" fill="#EAEAEA"/>
<path d="M554.703 407.952H644.48C645.585 407.952 646.48 408.848 646.48 409.952V410.103C646.48 411.207 645.585 412.103 644.48 412.103H554.703C553.598 412.103 552.703 411.207 552.703 410.103V409.952C552.703 408.848 553.598 407.952 554.703 407.952Z" fill="#EAEAEA"/>
<path d="M536.921 407.952H543.43C544.535 407.952 545.43 408.848 545.43 409.952V410.103C545.43 411.207 544.535 412.103 543.43 412.103H536.921C535.816 412.103 534.921 411.207 534.921 410.103V409.952C534.921 408.848 535.816 407.952 536.921 407.952Z" fill="#EAEAEA"/>
<path d="M606.445 415.423H631.549C632.653 415.423 633.549 416.318 633.549 417.423V417.573C633.549 418.678 632.653 419.573 631.549 419.573H606.445C605.341 419.573 604.445 418.678 604.445 417.573V417.423C604.445 416.318 605.341 415.423 606.445 415.423Z" fill="#F4AA53"/>
<path d="M368.708 441.859H431.909C432.825 441.859 433.569 442.603 433.569 443.519C433.569 444.436 432.825 445.18 431.909 445.18H368.708C367.791 445.18 367.048 444.436 367.048 443.519C367.048 442.603 367.791 441.859 368.708 441.859Z" fill="#EAEAEA"/>
<path d="M332.051 441.859H363.349C364.266 441.859 365.009 442.603 365.009 443.519C365.009 444.436 364.266 445.18 363.349 445.18H332.051C331.134 445.18 330.391 444.436 330.391 443.519C330.391 442.603 331.134 441.859 332.051 441.859Z" fill="#EAEAEA"/>
<path d="M458.983 450.16H520.826C521.743 450.16 522.486 450.903 522.486 451.82C522.486 452.737 521.743 453.48 520.826 453.48H458.983C458.066 453.48 457.323 452.737 457.323 451.82C457.323 450.903 458.066 450.16 458.983 450.16Z" fill="#F4AA53"/>
<path d="M435.226 450.16H451.591C452.508 450.16 453.251 450.903 453.251 451.82C453.251 452.737 452.508 453.48 451.591 453.48H435.226C434.309 453.48 433.566 452.737 433.566 451.82C433.566 450.903 434.309 450.16 435.226 450.16Z" fill="#F4AA53"/>
<path d="M374.136 450.16H405.434C406.351 450.16 407.094 450.903 407.094 451.82C407.094 452.737 406.351 453.48 405.434 453.48H374.136C373.219 453.48 372.476 452.737 372.476 451.82C372.476 450.903 373.219 450.16 374.136 450.16Z" fill="#F4AA53"/>
<path d="M601.53 450.16H641.652C642.569 450.16 643.312 450.903 643.312 451.82C643.312 452.737 642.569 453.48 641.652 453.48H601.53C600.613 453.48 599.87 452.737 599.87 451.82C599.87 450.903 600.613 450.16 601.53 450.16Z" fill="#F4AA53"/>
<path d="M528.221 450.16H554.089C555.006 450.16 555.749 450.903 555.749 451.82C555.749 452.737 555.006 453.48 554.089 453.48H528.221C527.304 453.48 526.561 452.737 526.561 451.82C526.561 450.903 527.304 450.16 528.221 450.16Z" fill="#F4AA53"/>
<path d="M439.979 441.859H471.277C472.194 441.859 472.937 442.603 472.937 443.519C472.937 444.436 472.194 445.18 471.277 445.18H439.979C439.062 445.18 438.319 444.436 438.319 443.519C438.319 442.603 439.062 441.859 439.979 441.859Z" fill="#EAEAEA"/>
<path d="M603.567 441.859H619.932C620.849 441.859 621.592 442.603 621.592 443.519C621.592 444.436 620.849 445.18 619.932 445.18H603.567C602.65 445.18 601.907 444.436 601.907 443.519C601.907 442.603 602.65 441.859 603.567 441.859Z" fill="#EAEAEA"/>
<path d="M478.67 441.859H495.035C495.951 441.859 496.695 442.603 496.695 443.519C496.695 444.436 495.951 445.18 495.035 445.18H478.67C477.753 445.18 477.01 444.436 477.01 443.519C477.01 442.603 477.753 441.859 478.67 441.859Z" fill="#44B2AB"/>
<path d="M478.966 442.69H495.331C496.248 442.69 496.991 443.433 496.991 444.35C496.991 445.267 496.248 446.01 495.331 446.01H478.966C478.049 446.01 477.306 445.267 477.306 444.35C477.306 443.433 478.049 442.69 478.966 442.69Z" fill="#EAEAEA"/>
<path d="M332.051 450.16H339.591C340.508 450.16 341.251 450.903 341.251 451.82C341.251 452.737 340.508 453.48 339.591 453.48H332.051C331.134 453.48 330.391 452.737 330.391 451.82C330.391 450.903 331.134 450.16 332.051 450.16Z" fill="#EAEAEA"/>
<path d="M552.997 441.859H593.797C594.901 441.859 595.797 442.755 595.797 443.859V444.01C595.797 445.114 594.901 446.01 593.797 446.01H552.997C551.892 446.01 550.997 445.114 550.997 444.01V443.859C550.997 442.755 551.892 441.859 552.997 441.859Z" fill="#EAEAEA"/>
<path d="M504.127 441.859H544.927C546.031 441.859 546.927 442.755 546.927 443.859V444.01C546.927 445.114 546.031 446.01 544.927 446.01H504.127C503.022 446.01 502.127 445.114 502.127 444.01V443.859C502.127 442.755 503.022 441.859 504.127 441.859Z" fill="#EAEAEA"/>
<path d="M418.766 450.16H422.192H427.837C428.754 450.16 429.497 450.903 429.497 451.82V451.82C429.497 452.737 428.754 453.48 427.837 453.48H422.192H418.766H410.794C409.877 453.48 409.134 452.737 409.134 451.82V451.82C409.134 450.903 409.877 450.16 410.794 450.16H418.766Z" fill="#F4AA53"/>
<path d="M345.63 450.16H368.103C369.02 450.16 369.763 450.903 369.763 451.82C369.763 452.737 369.02 453.48 368.103 453.48H345.63C344.713 453.48 343.97 452.737 343.97 451.82C343.97 450.903 344.713 450.16 345.63 450.16Z" fill="#EAEAEA"/>
<path d="M562.499 449.33H593.117C594.222 449.33 595.117 450.225 595.117 451.33V451.48C595.117 452.585 594.222 453.48 593.117 453.48H562.499C561.395 453.48 560.499 452.585 560.499 451.48V451.33C560.499 450.225 561.395 449.33 562.499 449.33Z" fill="#F4AA53"/>
<path d="M368.706 458.46H400.004C400.921 458.46 401.664 459.203 401.664 460.12C401.664 461.037 400.921 461.78 400.004 461.78H368.706C367.789 461.78 367.046 461.037 367.046 460.12C367.046 459.203 367.789 458.46 368.706 458.46Z" fill="#EAEAEA"/>
<path d="M332.051 458.46H363.349C364.266 458.46 365.009 459.203 365.009 460.12C365.009 461.037 364.266 461.78 363.349 461.78H332.051C331.134 461.78 330.391 461.037 330.391 460.12C330.391 459.203 331.134 458.46 332.051 458.46Z" fill="#EAEAEA"/>
<path d="M446.09 466.761H473.994C474.911 466.761 475.654 467.504 475.654 468.421C475.654 469.338 474.911 470.081 473.994 470.081H446.09C445.173 470.081 444.43 469.338 444.43 468.421C444.43 467.504 445.173 466.761 446.09 466.761Z" fill="#EAEAEA"/>
<path d="M411.468 466.761H438.693C439.61 466.761 440.353 467.504 440.353 468.421C440.353 469.338 439.61 470.081 438.693 470.081H411.468C410.551 470.081 409.808 469.338 409.808 468.421C409.808 467.504 410.551 466.761 411.468 466.761Z" fill="#F4AA53"/>
<path d="M357.166 466.761H405.434C406.351 466.761 407.094 467.504 407.094 468.421C407.094 469.338 406.351 470.081 405.434 470.081H357.166C356.25 470.081 355.506 469.338 355.506 468.421C355.506 467.504 356.25 466.761 357.166 466.761Z" fill="#F4AA53"/>
<path d="M592.028 466.761H614.502C615.419 466.761 616.162 467.504 616.162 468.421C616.162 469.338 615.419 470.081 614.502 470.081H592.028C591.111 470.081 590.368 469.338 590.368 468.421C590.368 467.504 591.111 466.761 592.028 466.761Z" fill="#EAEAEA"/>
<path d="M481.385 466.761H554.089C555.006 466.761 555.749 467.504 555.749 468.421C555.749 469.338 555.006 470.081 554.089 470.081H481.385C480.468 470.081 479.725 469.338 479.725 468.421C479.725 467.504 480.468 466.761 481.385 466.761Z" fill="#EAEAEA"/>
<path d="M410.788 458.46H454.304C455.221 458.46 455.964 459.203 455.964 460.12C455.964 461.037 455.221 461.78 454.304 461.78H410.788C409.871 461.78 409.128 461.037 409.128 460.12C409.128 459.203 409.871 458.46 410.788 458.46Z" fill="#EAEAEA"/>
<path d="M461.7 458.46H495.035C495.951 458.46 496.695 459.203 496.695 460.12C496.695 461.037 495.951 461.78 495.035 461.78H461.7C460.783 461.78 460.04 461.037 460.04 460.12C460.04 459.203 460.783 458.46 461.7 458.46Z" fill="#EAEAEA"/>
<path d="M332.053 466.761H349.097C350.013 466.761 350.757 467.504 350.757 468.421C350.757 469.338 350.013 470.081 349.097 470.081H332.053C331.136 470.081 330.393 469.338 330.393 468.421C330.393 467.504 331.136 466.761 332.053 466.761Z" fill="#EAEAEA"/>
<path d="M519.057 458.46H593.797C594.901 458.46 595.797 459.355 595.797 460.46V460.61C595.797 461.715 594.901 462.61 593.797 462.61H519.057C517.953 462.61 517.057 461.715 517.057 460.61V460.46C517.057 459.355 517.953 458.46 519.057 458.46Z" fill="#EAEAEA"/>
<path d="M504.123 458.46H508.947C510.052 458.46 510.947 459.355 510.947 460.46V460.61C510.947 461.715 510.052 462.61 508.947 462.61H504.123C503.018 462.61 502.123 461.715 502.123 460.61V460.46C502.123 459.355 503.018 458.46 504.123 458.46Z" fill="#EAEAEA"/>
<path d="M562.5 465.93H582.937C584.041 465.93 584.937 466.826 584.937 467.93V468.081C584.937 469.185 584.041 470.081 582.937 470.081H562.5C561.396 470.081 560.5 469.185 560.5 468.081V467.93C560.5 466.826 561.396 465.93 562.5 465.93Z" fill="#EAEAEA"/>
<path d="M446.983 487.511H503.113C504.03 487.511 504.773 488.254 504.773 489.171C504.773 490.088 504.03 490.831 503.113 490.831H446.983C446.067 490.831 445.323 490.088 445.323 489.171C445.323 488.254 446.067 487.511 446.983 487.511Z" fill="#EAEAEA"/>
<path d="M414.223 487.511H441.841C442.758 487.511 443.501 488.254 443.501 489.171C443.501 490.088 442.758 490.831 441.841 490.831H414.223C413.306 490.831 412.563 490.088 412.563 489.171C412.563 488.254 413.306 487.511 414.223 487.511Z" fill="#EAEAEA"/>
<path d="M527.661 495.812H582.578C583.494 495.812 584.238 496.555 584.238 497.472C584.238 498.389 583.494 499.132 582.578 499.132H527.661C526.745 499.132 526.001 498.389 526.001 497.472C526.001 496.555 526.745 495.812 527.661 495.812Z" fill="#EAEAEA"/>
<path d="M506.429 495.812H520.701C521.618 495.812 522.361 496.555 522.361 497.472C522.361 498.389 521.618 499.132 520.701 499.132H506.429C505.512 499.132 504.769 498.389 504.769 497.472C504.769 496.555 505.512 495.812 506.429 495.812Z" fill="#EAEAEA"/>
<path d="M451.835 495.812H479.453C480.37 495.812 481.113 496.555 481.113 497.472C481.113 498.389 480.37 499.132 479.453 499.132H451.835C450.918 499.132 450.175 498.389 450.175 497.472C450.175 496.555 450.918 495.812 451.835 495.812Z" fill="#F4AA53"/>
<path d="M654.934 495.812H673.961C674.877 495.812 675.621 496.555 675.621 497.472C675.621 498.389 674.877 499.132 673.961 499.132H654.934C654.017 499.132 653.274 498.389 653.274 497.472C653.274 496.555 654.017 495.812 654.934 495.812Z" fill="#EAEAEA"/>
<path d="M589.537 495.812H612.302C613.219 495.812 613.962 496.555 613.962 497.472C613.962 498.389 613.219 499.132 612.302 499.132H589.537C588.62 499.132 587.877 498.389 587.877 497.472C587.877 496.555 588.62 495.812 589.537 495.812Z" fill="#EAEAEA"/>
<path d="M510.679 487.511H538.297C539.214 487.511 539.957 488.254 539.957 489.171C539.957 490.088 539.214 490.831 538.297 490.831H510.679C509.762 490.831 509.019 490.088 509.019 489.171C509.019 488.254 509.762 487.511 510.679 487.511Z" fill="#EAEAEA"/>
<path d="M656.874 487.511H671.146C672.063 487.511 672.806 488.254 672.806 489.171C672.806 490.088 672.063 490.831 671.146 490.831H656.874C655.957 490.831 655.214 490.088 655.214 489.171C655.214 488.254 655.957 487.511 656.874 487.511Z" fill="#F4AA53"/>
<path d="M545.257 487.511H559.529C560.446 487.511 561.189 488.254 561.189 489.171C561.189 490.088 560.446 490.831 559.529 490.831H545.257C544.34 490.831 543.597 490.088 543.597 489.171C543.597 488.254 544.34 487.511 545.257 487.511Z" fill="#F4AA53"/>
<path d="M414.226 495.812H420.612C421.529 495.812 422.272 496.555 422.272 497.472C422.272 498.389 421.529 499.132 420.612 499.132H414.226C413.31 499.132 412.566 498.389 412.566 497.472C412.566 496.555 413.31 495.812 414.226 495.812Z" fill="#F4AA53"/>
<path d="M611.717 487.511H647.754C648.859 487.511 649.754 488.406 649.754 489.511V489.661C649.754 490.766 648.859 491.661 647.754 491.661H611.717C610.612 491.661 609.717 490.766 609.717 489.661V489.511C609.717 488.406 610.612 487.511 611.717 487.511Z" fill="#F4AA53"/>
<path d="M568.04 487.511H604.078C605.182 487.511 606.078 488.406 606.078 489.511V489.661C606.078 490.766 605.182 491.661 604.078 491.661H568.04C566.936 491.661 566.04 490.766 566.04 489.661V489.511C566.04 488.406 566.936 487.511 568.04 487.511Z" fill="#F4AA53"/>
<path d="M491.542 495.812H494.605H499.473C500.39 495.812 501.133 496.555 501.133 497.472V497.472C501.133 498.389 500.39 499.132 499.473 499.132H494.605H491.542H484.594C483.677 499.132 482.934 498.389 482.934 497.472V497.472C482.934 496.555 483.677 495.812 484.594 495.812H491.542Z" fill="#EAEAEA"/>
<path d="M426.357 495.812H446.089C447.005 495.812 447.749 496.555 447.749 497.472C447.749 498.389 447.005 499.132 446.089 499.132H426.357C425.44 499.132 424.697 498.389 424.697 497.472C424.697 496.555 425.44 495.812 426.357 495.812Z" fill="#F4AA53"/>
<path d="M620.212 494.981H647.15C648.255 494.981 649.15 495.877 649.15 496.981V497.132C649.15 498.236 648.255 499.132 647.15 499.132H620.212C619.107 499.132 618.212 498.236 618.212 497.132V496.981C618.212 495.877 619.107 494.981 620.212 494.981Z" fill="#EAEAEA"/>
<path d="M446.983 504.111H474.601C475.518 504.111 476.261 504.855 476.261 505.771C476.261 506.688 475.518 507.432 474.601 507.432H446.983C446.066 507.432 445.323 506.688 445.323 505.771C445.323 504.855 446.066 504.111 446.983 504.111Z" fill="#EAEAEA"/>
<path d="M414.223 504.111H441.841C442.758 504.111 443.501 504.855 443.501 505.771C443.501 506.688 442.758 507.432 441.841 507.432H414.223C413.306 507.432 412.563 506.688 412.563 505.771C412.563 504.855 413.306 504.111 414.223 504.111Z" fill="#EAEAEA"/>
<path d="M516.137 512.412H540.721C541.638 512.412 542.381 513.155 542.381 514.072C542.381 514.989 541.638 515.732 540.721 515.732H516.137C515.22 515.732 514.476 514.989 514.476 514.072C514.476 513.155 515.22 512.412 516.137 512.412Z" fill="#EAEAEA"/>
<path d="M485.199 512.412H509.177C510.094 512.412 510.837 513.155 510.837 514.072C510.837 514.989 510.094 515.732 509.177 515.732H485.199C484.282 515.732 483.539 514.989 483.539 514.072C483.539 513.155 484.282 512.412 485.199 512.412Z" fill="#EAEAEA"/>
<path d="M436.669 512.412H479.453C480.37 512.412 481.113 513.155 481.113 514.072C481.113 514.989 480.37 515.732 479.453 515.732H436.669C435.752 515.732 435.009 514.989 435.009 514.072C435.009 513.155 435.752 512.412 436.669 512.412Z" fill="#EAEAEA"/>
<path d="M646.562 512.412H666.294C667.211 512.412 667.954 513.155 667.954 514.072C667.954 514.989 667.211 515.732 666.294 515.732H646.562C645.645 515.732 644.902 514.989 644.902 514.072C644.902 513.155 645.645 512.412 646.562 512.412Z" fill="#EAEAEA"/>
<path d="M547.68 512.412H612.302C613.219 512.412 613.962 513.155 613.962 514.072C613.962 514.989 613.219 515.732 612.302 515.732H547.68C546.763 515.732 546.02 514.989 546.02 514.072C546.02 513.155 546.763 512.412 547.68 512.412Z" fill="#EAEAEA"/>
<path d="M484.592 504.111H523.129C524.046 504.111 524.789 504.855 524.789 505.771C524.789 506.688 524.046 507.432 523.129 507.432H484.592C483.675 507.432 482.932 506.688 482.932 505.771C482.932 504.855 483.675 504.111 484.592 504.111Z" fill="#EAEAEA"/>
<path d="M530.091 504.111H559.529C560.446 504.111 561.189 504.855 561.189 505.771C561.189 506.688 560.446 507.432 559.529 507.432H530.091C529.175 507.432 528.431 506.688 528.431 505.771C528.431 504.855 529.175 504.111 530.091 504.111Z" fill="#EAEAEA"/>
<path d="M414.226 512.412H429.104C430.021 512.412 430.765 513.155 430.765 514.072C430.765 514.989 430.021 515.732 429.104 515.732H414.226C413.309 515.732 412.566 514.989 412.566 514.072C412.566 513.155 413.309 512.412 414.226 512.412Z" fill="#EAEAEA"/>
<path d="M581.208 504.111H684.473C685.578 504.111 686.473 505.007 686.473 506.111V506.262C686.473 507.366 685.578 508.262 684.473 508.262H581.208C580.103 508.262 579.208 507.366 579.208 506.262V506.111C579.208 505.007 580.103 504.111 581.208 504.111Z" fill="#EAEAEA"/>
<path d="M568.039 504.111H571.926C573.03 504.111 573.926 505.007 573.926 506.111V506.262C573.926 507.366 573.03 508.262 571.926 508.262H568.039C566.935 508.262 566.039 507.366 566.039 506.262V506.111C566.039 505.007 566.935 504.111 568.039 504.111Z" fill="#EAEAEA"/>
<path d="M620.211 511.582H638.05C639.154 511.582 640.05 512.477 640.05 513.582V513.732C640.05 514.837 639.154 515.732 638.05 515.732H620.211C619.107 515.732 618.211 514.837 618.211 513.732V513.582C618.211 512.477 619.107 511.582 620.211 511.582Z" fill="#EAEAEA"/>
<path d="M446.983 519.883H503.113C504.03 519.883 504.773 520.626 504.773 521.543C504.773 522.459 504.03 523.203 503.113 523.203H446.983C446.067 523.203 445.323 522.459 445.323 521.543C445.323 520.626 446.067 519.883 446.983 519.883Z" fill="#EAEAEA"/>
<path d="M414.223 519.883H441.841C442.758 519.883 443.501 520.626 443.501 521.543C443.501 522.459 442.758 523.203 441.841 523.203H414.223C413.306 523.203 412.563 522.459 412.563 521.543C412.563 520.626 413.306 519.883 414.223 519.883Z" fill="#EAEAEA"/>
<path d="M527.661 528.183H582.578C583.494 528.183 584.238 528.927 584.238 529.843C584.238 530.76 583.494 531.503 582.578 531.503H527.661C526.745 531.503 526.001 530.76 526.001 529.843C526.001 528.927 526.745 528.183 527.661 528.183Z" fill="#EAEAEA"/>
<path d="M506.429 528.183H520.701C521.618 528.183 522.361 528.927 522.361 529.843C522.361 530.76 521.618 531.503 520.701 531.503H506.429C505.512 531.503 504.769 530.76 504.769 529.843C504.769 528.927 505.512 528.183 506.429 528.183Z" fill="#EAEAEA"/>
<path d="M451.835 528.183H479.453C480.37 528.183 481.113 528.927 481.113 529.843C481.113 530.76 480.37 531.503 479.453 531.503H451.835C450.918 531.503 450.175 530.76 450.175 529.843C450.175 528.927 450.918 528.183 451.835 528.183Z" fill="#EAEAEA"/>
<path d="M654.934 528.183H673.961C674.877 528.183 675.621 528.927 675.621 529.843C675.621 530.76 674.877 531.503 673.961 531.503H654.934C654.017 531.503 653.274 530.76 653.274 529.843C653.274 528.927 654.017 528.183 654.934 528.183Z" fill="#EAEAEA"/>
<path d="M589.537 528.183H612.302C613.219 528.183 613.962 528.927 613.962 529.843C613.962 530.76 613.219 531.503 612.302 531.503H589.537C588.62 531.503 587.877 530.76 587.877 529.843C587.877 528.927 588.62 528.183 589.537 528.183Z" fill="#EAEAEA"/>
<path d="M510.679 519.883H538.297C539.214 519.883 539.957 520.626 539.957 521.543C539.957 522.459 539.214 523.203 538.297 523.203H510.679C509.762 523.203 509.019 522.459 509.019 521.543C509.019 520.626 509.762 519.883 510.679 519.883Z" fill="#EAEAEA"/>
<path d="M656.874 519.883H671.146C672.063 519.883 672.806 520.626 672.806 521.543C672.806 522.459 672.063 523.203 671.146 523.203H656.874C655.957 523.203 655.214 522.459 655.214 521.543C655.214 520.626 655.957 519.883 656.874 519.883Z" fill="#F4AA53"/>
<path d="M545.257 519.883H559.529C560.446 519.883 561.189 520.626 561.189 521.543C561.189 522.459 560.446 523.203 559.529 523.203H545.257C544.34 523.203 543.597 522.459 543.597 521.543C543.597 520.626 544.34 519.883 545.257 519.883Z" fill="#EAEAEA"/>
<path d="M414.226 528.183H420.612C421.529 528.183 422.272 528.927 422.272 529.843C422.272 530.76 421.529 531.503 420.612 531.503H414.226C413.31 531.503 412.566 530.76 412.566 529.843C412.566 528.927 413.31 528.183 414.226 528.183Z" fill="#EAEAEA"/>
<path d="M611.717 519.883H647.754C648.859 519.883 649.754 520.778 649.754 521.883V522.033C649.754 523.137 648.859 524.033 647.754 524.033H611.717C610.612 524.033 609.717 523.137 609.717 522.033V521.883C609.717 520.778 610.612 519.883 611.717 519.883Z" fill="#EAEAEA"/>
<path d="M568.04 519.883H604.078C605.182 519.883 606.078 520.778 606.078 521.883V522.033C606.078 523.137 605.182 524.033 604.078 524.033H568.04C566.936 524.033 566.04 523.137 566.04 522.033V521.883C566.04 520.778 566.936 519.883 568.04 519.883Z" fill="#EAEAEA"/>
<path d="M491.542 528.183H494.605H499.473C500.39 528.183 501.133 528.927 501.133 529.843V529.843C501.133 530.76 500.39 531.503 499.473 531.503H494.605H491.542H484.594C483.677 531.503 482.934 530.76 482.934 529.843V529.843C482.934 528.927 483.677 528.183 484.594 528.183H491.542Z" fill="#EAEAEA"/>
<path d="M426.357 528.183H446.089C447.005 528.183 447.749 528.927 447.749 529.843C447.749 530.76 447.005 531.503 446.089 531.503H426.357C425.44 531.503 424.697 530.76 424.697 529.843C424.697 528.927 425.44 528.183 426.357 528.183Z" fill="#EAEAEA"/>
<path d="M620.212 527.353H647.15C648.255 527.353 649.15 528.248 649.15 529.353V529.503C649.15 530.608 648.255 531.503 647.15 531.503H620.212C619.107 531.503 618.212 530.608 618.212 529.503V529.353C618.212 528.248 619.107 527.353 620.212 527.353Z" fill="#EAEAEA"/>
<path d="M446.983 536.483H474.601C475.518 536.483 476.261 537.226 476.261 538.143C476.261 539.06 475.518 539.803 474.601 539.803H446.983C446.066 539.803 445.323 539.06 445.323 538.143C445.323 537.226 446.066 536.483 446.983 536.483Z" fill="#F4AA53"/>
<path d="M414.223 536.483H441.841C442.758 536.483 443.501 537.226 443.501 538.143C443.501 539.06 442.758 539.803 441.841 539.803H414.223C413.306 539.803 412.563 539.06 412.563 538.143C412.563 537.226 413.306 536.483 414.223 536.483Z" fill="#F4AA53"/>
<path d="M516.137 544.784H540.721C541.638 544.784 542.381 545.527 542.381 546.444C542.381 547.361 541.638 548.104 540.721 548.104H516.137C515.22 548.104 514.476 547.361 514.476 546.444C514.476 545.527 515.22 544.784 516.137 544.784Z" fill="#EAEAEA"/>
<path d="M485.199 544.784H509.177C510.094 544.784 510.837 545.527 510.837 546.444C510.837 547.361 510.094 548.104 509.177 548.104H485.199C484.282 548.104 483.539 547.361 483.539 546.444C483.539 545.527 484.282 544.784 485.199 544.784Z" fill="#EAEAEA"/>
<path d="M436.669 544.784H479.453C480.37 544.784 481.113 545.527 481.113 546.444C481.113 547.361 480.37 548.104 479.453 548.104H436.669C435.752 548.104 435.009 547.361 435.009 546.444C435.009 545.527 435.752 544.784 436.669 544.784Z" fill="#EAEAEA"/>
<path d="M646.562 544.784H666.294C667.211 544.784 667.954 545.527 667.954 546.444C667.954 547.361 667.211 548.104 666.294 548.104H646.562C645.645 548.104 644.902 547.361 644.902 546.444C644.902 545.527 645.645 544.784 646.562 544.784Z" fill="#EAEAEA"/>
<path d="M547.68 544.784H612.302C613.219 544.784 613.962 545.527 613.962 546.444C613.962 547.361 613.219 548.104 612.302 548.104H547.68C546.763 548.104 546.02 547.361 546.02 546.444C546.02 545.527 546.763 544.784 547.68 544.784Z" fill="#EAEAEA"/>
<path d="M484.592 536.483H523.129C524.046 536.483 524.789 537.226 524.789 538.143C524.789 539.06 524.046 539.803 523.129 539.803H484.592C483.675 539.803 482.932 539.06 482.932 538.143C482.932 537.226 483.675 536.483 484.592 536.483Z" fill="#F4AA53"/>
<path d="M530.091 536.483H559.529C560.446 536.483 561.189 537.226 561.189 538.143C561.189 539.06 560.446 539.803 559.529 539.803H530.091C529.175 539.803 528.431 539.06 528.431 538.143C528.431 537.226 529.175 536.483 530.091 536.483Z" fill="#F4AA53"/>
<path d="M414.226 544.784H429.104C430.021 544.784 430.765 545.527 430.765 546.444C430.765 547.361 430.021 548.104 429.104 548.104H414.226C413.309 548.104 412.566 547.361 412.566 546.444C412.566 545.527 413.309 544.784 414.226 544.784Z" fill="#EAEAEA"/>
<path d="M581.208 536.483H684.473C685.578 536.483 686.473 537.378 686.473 538.483V538.633C686.473 539.738 685.578 540.633 684.473 540.633H581.208C580.103 540.633 579.208 539.738 579.208 538.633V538.483C579.208 537.378 580.103 536.483 581.208 536.483Z" fill="#F4AA53"/>
<path d="M568.039 536.483H571.926C573.03 536.483 573.926 537.378 573.926 538.483V538.633C573.926 539.738 573.03 540.633 571.926 540.633H568.039C566.935 540.633 566.039 539.738 566.039 538.633V538.483C566.039 537.378 566.935 536.483 568.039 536.483Z" fill="#F4AA53"/>
<path d="M620.211 543.954H638.05C639.154 543.954 640.05 544.849 640.05 545.954V546.104C640.05 547.208 639.154 548.104 638.05 548.104H620.211C619.107 548.104 618.211 547.208 618.211 546.104V545.954C618.211 544.849 619.107 543.954 620.211 543.954Z" fill="#EAEAEA"/>
<path d="M516.877 368.7C516.877 369.824 515.958 370.642 514.936 370.642C513.812 370.642 512.994 369.722 512.994 368.7C512.994 367.576 513.914 366.759 514.936 366.759C515.958 366.759 516.877 367.678 516.877 368.7Z" fill="#42D0C7"/>
<g opacity="0.25">
<g opacity="0.25">
<path opacity="0.25" d="M395.811 563.655H361.068V569.786H395.811V563.655Z" fill="#D98E9D"/>
</g>
<g opacity="0.25">
<path opacity="0.25" d="M416.243 576.938H381.501V583.068H416.243V576.938Z" fill="#D98E9D"/>
</g>
<g opacity="0.25">
<path opacity="0.25" d="M416.243 521.761H381.501V527.892H416.243V521.761Z" fill="#D98E9D"/>
</g>
<g opacity="0.25">
<path opacity="0.25" d="M395.811 535.045H361.068V541.175H395.811V535.045Z" fill="#D98E9D"/>
</g>
</g>
<g filter="url(#filter2_d)">
<path d="M390.508 668.209L390.61 675.566C390.61 675.566 389.69 680.266 388.975 685.273C388.26 690.279 387.647 695.593 388.464 696.921C389.997 699.373 392.96 696.921 393.471 694.469C393.982 692.016 395.133 674.39 395.133 674.39L395.208 666.676L390.508 668.209Z" fill="url(#paint1_linear)"/>
<path d="M382.682 666.92L383.927 672.316C383.927 672.316 386.422 691.915 385.196 694.674C383.97 697.433 379.984 696.207 380.189 692.426C380.393 688.748 378.947 673.976 378.947 673.976L377.225 667.597L382.682 666.92Z" fill="url(#paint2_linear)"/>
<path d="M382.681 666.92L383.865 672.093L378.946 673.976L377.529 668.823L382.681 666.92Z" fill="#E9C3AF"/>
<path d="M390.568 673.56L395.133 674.39L395.548 668.995L390.51 668.209L390.568 673.56Z" fill="#E9C3AF"/>
<path d="M386.116 586.467L386.627 594.641L365.577 604.757C361.796 606.8 359.957 611.194 361.183 615.383L375.693 669.435L382.948 667.187L376.511 617.427C376.102 614.362 378.146 611.501 381.211 610.99L388.671 609.866L396.641 601.794L387.444 610.07C385.196 612.114 384.072 615.077 384.481 618.04L390.408 668.209L396.948 669.844L399.911 620.39C400.115 617.222 402.261 614.566 405.224 613.646L418.202 609.559C420.246 608.333 421.574 606.085 421.574 603.633L421.063 586.263L386.116 586.467Z" fill="#50ECE2"/>
<path d="M422.493 604.757L419.019 537.218C419.019 537.218 404.611 536.4 400.421 536.4C398.071 536.4 394.086 537.524 391.02 538.546C388.057 539.466 385.604 539.363 384.174 542.122L360.569 587.285L375.079 588.613L379.882 583.095L377.43 579.417L386.218 558.675L384.48 596.378L422.493 604.757Z" fill="url(#paint3_linear)"/>
<path d="M385.911 550.398L370.277 578.599L375.182 584.321C375.182 584.321 377.124 584.73 379.065 584.117L379.883 583.095L377.43 579.417L386.218 558.675L385.911 550.398Z" fill="#011527"/>
<path d="M404.612 548.253C409.313 548.253 413.196 544.37 413.196 539.67C413.196 538.75 412.991 537.831 412.787 536.911C408.393 536.707 402.773 536.4 400.423 536.4C399.401 536.4 397.97 536.605 396.54 537.013C396.233 537.831 396.131 538.75 396.131 539.67C396.029 544.37 399.809 548.253 404.612 548.253Z" fill="white"/>
<path d="M420.74 549.055L422.579 605.355L399.281 599.735L420.74 549.055Z" fill="#011527"/>
<path d="M398.887 529.452C399.296 530.269 402.157 541.305 402.157 541.305C402.157 541.305 403.179 543.144 405.631 542.939C408.084 542.735 409.105 539.363 409.105 539.363L404.916 525.467L398.887 529.452Z" fill="#E9C3AF"/>
<path d="M413.808 522.606C413.808 530.269 405.735 538.648 398.072 538.648C390.408 538.648 386.218 530.167 386.218 522.606C386.218 514.943 392.451 508.812 400.013 508.812C407.677 508.812 413.808 514.943 413.808 522.606Z" fill="#EEBCC5"/>
<path d="M415.066 526.22C416.446 517.754 410.701 509.772 402.235 508.392C393.768 507.012 385.786 512.756 384.406 521.222C383.025 529.688 388.77 537.67 397.237 539.05C405.703 540.43 413.686 534.686 415.066 526.22Z" fill="#E9C3AF"/>
<path d="M388.668 535.277C386.829 535.277 384.785 533.744 384.172 531.803C383.763 530.781 383.866 529.759 384.377 529.146C384.785 528.533 385.501 528.226 386.42 528.226C388.26 528.226 390.303 529.759 390.916 531.7C391.325 532.722 391.223 533.744 390.712 534.357C390.303 534.97 389.588 535.277 388.668 535.277ZM386.42 528.737C385.705 528.737 385.194 529.044 384.887 529.452C384.479 529.963 384.479 530.781 384.785 531.7C385.398 533.437 387.238 534.766 388.77 534.766C389.486 534.766 389.997 534.459 390.303 534.05C390.712 533.54 390.712 532.722 390.405 531.803C389.792 530.066 387.953 528.737 386.42 528.737Z" fill="#EFF2F7"/>
<path d="M397.864 535.276C396.024 535.276 393.981 533.744 393.368 531.802C392.959 530.781 393.061 529.759 393.572 529.146C393.981 528.533 394.696 528.226 395.616 528.226C397.455 528.226 399.499 529.759 400.112 531.7C400.521 532.722 400.418 533.744 399.907 534.357C399.499 534.97 398.783 535.276 397.864 535.276ZM395.514 528.737C394.798 528.737 394.287 529.044 393.981 529.452C393.572 529.963 393.572 530.781 393.879 531.7C394.492 533.437 396.331 534.766 397.864 534.766C398.579 534.766 399.09 534.459 399.397 534.05C399.805 533.539 399.805 532.722 399.499 531.802C398.988 530.065 397.148 528.737 395.514 528.737Z" fill="#EFF2F7"/>
<path d="M390.304 532.62C390.509 533.029 390.509 533.539 390.202 533.744C389.896 533.948 389.487 533.744 389.18 533.233C388.874 532.722 388.976 532.313 389.282 532.109C389.691 532.007 390.1 532.211 390.304 532.62Z" fill="#2D2B42"/>
<path d="M397.256 532.927C397.461 533.335 397.461 533.846 397.154 534.051C396.848 534.255 396.439 534.051 396.132 533.54C395.928 533.131 395.928 532.62 396.235 532.416C396.541 532.314 397.052 532.518 397.256 532.927Z" fill="#2D2B42"/>
<path d="M402.669 598.321C402.056 598.117 396.947 595.664 393.37 595.664C389.794 595.664 385.298 599.445 385.298 599.445C385.298 599.445 384.685 601.489 387.137 601.08C389.59 600.671 386.831 602.612 386.831 602.612C386.831 602.612 386.933 602.715 389.794 603.123C392.655 603.532 403.589 602.919 403.589 602.919L402.669 598.321Z" fill="#E9C3AF"/>
<path d="M419.017 537.219L420.959 581.666L402.668 598.219L403.588 602.817L429.338 589.125C431.791 587.796 433.221 585.038 432.812 582.279L428.112 548.254C427.703 543.963 425.149 540.284 421.368 538.343L419.017 537.219Z" fill="url(#paint4_linear)"/>
<path d="M404.509 606.699H358.016V603.327H404.509C405.429 603.327 406.246 604.043 406.246 605.064C406.246 605.882 405.429 606.699 404.509 606.699Z" fill="white"/>
<path d="M391.736 606.699H346.877C344.936 606.699 343.199 605.371 342.688 603.43L334.717 573.594C334.002 570.835 336.046 568.076 338.907 568.076H378.043C379.985 568.076 381.722 569.405 382.233 571.346L391.736 606.699Z" fill="white"/>
<path d="M365.371 590.044C365.882 591.985 364.656 593.518 362.612 593.518C360.569 593.518 358.627 591.985 358.116 590.044C357.605 588.103 358.832 586.57 360.875 586.57C362.817 586.468 364.86 588.103 365.371 590.044Z" fill="#44B2AB"/>
<path d="M399.706 508.2C391.736 508.2 385.196 514.229 384.277 521.994C386.933 524.038 390.51 524.855 393.78 524.344C397.663 523.629 401.239 520.972 402.874 517.396C402.772 519.133 402.67 520.87 402.874 522.607C403.181 524.344 403.896 525.979 405.224 527.103C405.327 525.877 405.429 524.651 406.042 523.629C406.655 522.607 407.983 521.892 409.107 522.301C409.925 522.607 410.436 523.424 410.538 524.344C410.64 525.162 410.436 526.081 410.129 526.899C409.618 528.125 408.903 529.351 407.983 530.373C409.823 530.679 411.764 530.883 413.603 530.679C414.625 528.636 415.136 526.388 415.136 523.935C415.238 515.148 408.29 508.2 399.706 508.2Z" fill="#002E57"/>
<path d="M413.09 526.286C413.09 528.84 410.944 530.986 408.389 530.986C405.835 530.986 403.689 528.84 403.689 526.286C403.689 523.731 405.835 521.586 408.389 521.586C410.944 521.586 413.09 523.629 413.09 526.286Z" fill="#E9C3AF"/>
</g>
<g filter="url(#filter3_d)">
<path d="M647.397 668.284L647.041 673.976C647.041 673.976 648.214 680.341 648.93 685.348C649.645 690.355 650.258 695.668 649.441 696.996C647.908 699.448 644.945 696.996 644.434 694.544C643.923 692.092 642.891 674.391 642.891 674.391L642.476 666.921L647.397 668.284Z" fill="url(#paint5_linear)"/>
<path d="M654.857 667.262L653.733 673.903C653.733 673.903 651.485 691.989 652.711 694.747C653.938 697.506 657.923 696.28 657.718 692.499C657.514 688.821 658.434 675.64 658.434 675.64L660.682 667.67L654.857 667.262Z" fill="url(#paint6_linear)"/>
<path d="M654.515 667.336L654.042 672.167L658.946 673.801L660.377 668.897L654.515 667.336Z" fill="#E9C3AF"/>
<path d="M647.041 673.976L642.891 674.391L642.476 669.411L647.395 668.284L647.041 673.976Z" fill="#E9C3AF"/>
<path d="M651.794 586.542L651.283 594.717L672.333 604.832C676.114 606.876 677.953 611.269 676.727 615.459L662.217 669.51L654.514 667.336L661.399 617.502C661.808 614.437 659.764 611.576 656.699 611.065L649.239 609.941L641.269 601.869L650.466 610.145C652.714 612.189 653.838 615.152 653.429 618.115L647.502 668.284L640.962 669.919L637.999 620.465C637.795 617.298 635.649 614.641 632.686 613.722L619.708 609.635C617.664 608.408 616.336 606.161 616.336 603.708L616.847 586.338L651.794 586.542Z" fill="#50ECE2"/>
<path d="M615.417 604.832L618.891 537.293C618.891 537.293 633.299 536.476 637.488 536.476C639.839 536.476 643.824 537.6 646.889 538.621C649.853 539.541 652.305 539.439 653.736 542.198L677.34 587.36L662.83 588.688L658.027 583.171L660.48 579.492L651.692 558.75L653.429 596.454L615.417 604.832Z" fill="#EAEAEA"/>
<path d="M651.999 550.474L667.634 578.675L662.729 584.397C662.729 584.397 660.787 584.805 658.846 584.192L658.028 583.17L660.481 579.492L651.693 558.75L651.999 550.474Z" fill="#DEDEDE"/>
<path d="M638.204 556.809C633.503 556.809 624.716 544.445 624.716 539.643C624.716 538.723 624.92 537.804 625.124 536.884C629.518 536.68 635.138 536.373 637.489 536.373C638.51 536.373 639.941 536.578 641.372 536.986C641.678 537.804 641.78 538.723 641.78 539.643C641.883 544.445 642.904 556.809 638.204 556.809Z" fill="white"/>
<path d="M617.154 548.942L615.417 605.241L638.613 599.622L617.154 548.942Z" fill="#DEDEDE"/>
<path d="M639.024 529.527C638.616 530.345 635.754 541.38 635.754 541.38C635.754 541.38 634.733 543.219 632.28 543.015C629.828 542.81 628.806 539.439 628.806 539.439L632.995 525.543L639.024 529.527Z" fill="#E9C3AF"/>
<path d="M624.104 522.682C624.104 530.345 632.176 538.723 639.84 538.723C647.504 538.723 651.694 530.243 651.694 522.682C651.694 515.018 645.46 508.888 637.899 508.888C630.337 508.888 624.104 515.018 624.104 522.682Z" fill="#EEBCC5"/>
<path d="M640.71 539.151C649.176 537.771 654.921 529.789 653.541 521.323C652.16 512.857 644.178 507.113 635.711 508.493C627.245 509.873 621.5 517.855 622.88 526.321C624.261 534.787 632.243 540.531 640.71 539.151Z" fill="#E9C3AF"/>
<path d="M648.422 532.287C648.115 532.798 648.115 533.411 648.524 533.615C648.932 533.82 649.443 533.615 649.75 533.002C650.057 532.491 650.057 531.878 649.648 531.674C649.239 531.47 648.728 531.674 648.422 532.287Z" fill="#2D2B42"/>
<path d="M640.556 533.104C640.25 533.717 640.25 534.33 640.658 534.636C641.067 534.841 641.68 534.534 641.987 534.023C642.293 533.41 642.293 532.797 641.885 532.491C641.476 532.184 640.965 532.491 640.556 533.104Z" fill="#2D2B42"/>
<path d="M635.238 598.395C635.851 598.191 640.96 595.738 644.536 595.738C648.113 595.738 652.609 599.519 652.609 599.519C652.609 599.519 653.222 601.562 650.77 601.154C648.317 600.745 651.076 602.686 651.076 602.686C651.076 602.686 650.974 602.789 648.113 603.197C645.252 603.606 634.318 602.993 634.318 602.993L635.238 598.395Z" fill="#E9C3AF"/>
<path d="M618.889 537.293L616.947 581.74L635.238 598.293L634.318 602.89L608.67 589.199C606.218 587.87 604.787 585.112 605.196 582.353L609.896 548.328C610.305 544.037 612.86 540.358 616.64 538.417L618.889 537.293Z" fill="#EAEAEA"/>
<path d="M633.4 606.773H679.894V603.401H633.4C632.481 603.401 631.663 604.116 631.663 605.138C631.663 605.956 632.481 606.773 633.4 606.773Z" fill="white"/>
<path d="M646.171 606.773H691.029C692.971 606.773 694.708 605.445 695.219 603.504L703.189 573.668C703.905 570.909 701.861 568.15 699 568.15H659.863C657.922 568.15 656.185 569.479 655.674 571.42L646.171 606.773Z" fill="white"/>
<path d="M672.539 590.118C672.029 592.059 673.255 593.592 675.298 593.592C677.342 593.592 679.284 592.059 679.795 590.118C680.305 588.177 679.079 586.644 677.036 586.644C675.094 586.542 673.05 588.177 672.539 590.118Z" fill="#44B2AB"/>
<path d="M638.202 508.275C646.172 508.275 652.712 514.303 653.631 522.069C650.975 524.112 647.398 524.93 644.128 524.419C640.245 523.704 636.669 521.047 635.034 517.471C635.136 519.208 635.238 520.945 635.034 522.682C634.727 524.419 634.012 526.054 632.684 527.178C632.582 525.952 632.479 524.725 631.866 523.704C631.253 522.682 629.925 521.967 628.801 522.375C627.983 522.682 627.472 523.499 627.37 524.419C627.268 525.236 627.472 526.156 627.779 526.973C628.29 528.2 629.005 529.426 629.925 530.447C628.085 530.754 626.144 530.958 624.305 530.754C623.283 528.71 622.772 526.463 622.772 524.01C622.567 515.223 629.618 508.275 638.202 508.275Z" fill="#44B2AB"/>
<path d="M624.816 526.361C624.816 528.915 626.962 531.061 629.517 531.061C632.071 531.061 634.217 528.915 634.217 526.361C634.217 523.806 632.071 521.66 629.517 521.66C626.962 521.66 624.816 523.704 624.816 526.361Z" fill="#E9C3AF"/>
</g>
<path d="M629.518 516.857C635.049 516.857 639.532 512.374 639.532 506.844C639.532 501.313 635.049 496.83 629.518 496.83C623.988 496.83 619.504 501.313 619.504 506.844C619.504 512.374 623.988 516.857 629.518 516.857Z" fill="#44B2AB"/>
<g filter="url(#filter4_d)">
<path d="M515.033 510.522L509.515 517.266L506.756 522.988L504.201 530.243C504.201 530.243 499.705 534.432 500.012 534.432C500.216 534.534 499.705 539.541 500.216 540.256C500.727 540.971 505.734 547 505.734 547C505.734 547 510.639 550.167 512.58 550.576C514.522 550.985 524.332 555.276 524.332 555.276L530.36 549.554L528.112 546.591C528.112 546.591 534.346 542.81 535.163 542.3C535.878 541.789 538.944 538.826 538.944 538.826C538.944 538.826 538.842 536.169 538.331 534.534C537.922 532.797 534.857 524.521 534.857 524.521C534.857 524.521 530.871 518.799 530.36 517.777C529.849 516.755 527.601 513.486 527.601 513.486L515.033 510.522Z" fill="#002E57"/>
<path d="M539.35 590.22L500.929 590.527L500.622 551.393C500.622 549.043 502.462 547.204 504.812 547.204L534.956 546.999C537.306 546.999 539.146 548.839 539.146 551.189L539.35 590.22Z" fill="#44B2AB"/>
<path d="M512.578 547.102C512.578 547.102 515.439 550.474 515.439 557.524C515.439 564.574 515.644 577.449 515.644 577.449H524.227V557.115C524.227 557.115 523.372 551.961 527.107 546.981L519.629 545.058L512.578 547.102Z" fill="#EAEAEA"/>
<path d="M519.523 555.276C516.969 555.276 514.823 553.233 514.823 550.678L514.721 536.476C514.721 536.169 515.027 535.863 515.334 535.863L523.406 535.76C523.713 535.76 524.02 536.067 524.02 536.374L524.122 550.576C524.224 553.131 522.18 555.276 519.523 555.276Z" fill="#E9C3AF"/>
<path d="M535.876 533.104C535.876 532.899 535.876 532.797 535.876 532.593C535.876 531.162 535.671 529.834 535.365 528.506V526.666C535.365 517.777 528.11 510.42 519.117 510.42C510.227 510.42 502.87 517.675 502.87 526.666V533.001H535.876V533.104Z" fill="#9B5342"/>
<path d="M534.138 528.607V527.075C534.138 518.798 527.393 512.157 519.219 512.157C510.942 512.157 504.3 518.9 504.3 527.075V533.205C504.3 533.614 504.3 534.023 504.402 534.431C505.424 541.89 511.759 547.612 519.423 547.612C527.802 547.612 534.648 540.766 534.648 532.388C534.546 531.059 534.444 529.833 534.138 528.607Z" fill="#E9C3AF"/>
<path d="M514.518 535.045C514.518 535.658 514.007 536.169 513.394 536.169C512.781 536.169 512.27 535.658 512.27 535.045C512.27 534.432 512.781 533.921 513.394 533.921C514.007 533.921 514.518 534.432 514.518 535.045Z" fill="#37354C"/>
<path d="M525.453 535.045C525.453 535.658 524.942 536.169 524.329 536.169C523.716 536.169 523.205 535.658 523.205 535.045C523.205 534.432 523.716 533.921 524.329 533.921C524.942 533.921 525.453 534.432 525.453 535.045Z" fill="#37354C"/>
<path d="M508.491 534.534C508.491 536.884 506.549 538.723 504.301 538.723C501.951 538.723 500.112 536.782 500.112 534.534C500.112 532.184 502.053 530.345 504.301 530.345C506.549 530.243 508.491 532.184 508.491 534.534Z" fill="#E9C3AF"/>
<path d="M538.328 534.534C538.328 536.884 536.386 538.723 534.138 538.723C531.788 538.723 529.949 536.782 529.949 534.534C529.949 532.184 531.89 530.345 534.138 530.345C536.386 530.243 538.328 532.184 538.328 534.534Z" fill="#E9C3AF"/>
<path d="M520.241 607.489L501.337 616.378L504.811 673.904H498.067L484.374 614.948C483.761 612.393 484.885 609.634 487.133 608.204L505.015 597.271L520.241 607.489Z" fill="url(#paint7_linear)"/>
<path d="M524.329 558.852H515.644V605.24H524.329V558.852Z" fill="#EAEAEA"/>
<path d="M529.645 528.608C530.054 529.936 530.667 531.367 531.893 531.775C532.915 532.082 533.937 531.469 534.856 530.958C535.367 530.651 535.878 530.243 535.878 529.63C535.98 529.119 535.674 528.71 535.469 528.199C534.55 526.564 533.63 524.827 532.404 523.499C531.28 522.273 529.236 520.229 528.112 522.375C527.397 523.703 529.236 527.177 529.645 528.608Z" fill="#002E57"/>
<path d="M531.173 519.004C527.903 516.552 523.816 515.121 519.319 515.121L519.524 512.464C515.13 512.464 510.838 516.552 507.568 519.004C510.429 522.273 514.619 525.339 519.422 525.339C524.122 525.339 528.312 522.273 531.173 519.004Z" fill="#002E57"/>
<path d="M479.573 582.455C478.96 581.638 478.857 580.616 479.062 579.594C481.208 570.909 496.74 550.576 497.353 549.758C498.375 548.43 503.688 547.306 503.688 547.306L504.301 561.305L490.302 577.755C489.382 578.879 489.178 580.309 489.791 581.638L500.827 604.117L495.002 605.752L479.573 582.455Z" fill="#44B2AB"/>
<path d="M530.051 597.271L547.933 608.204C550.181 609.634 551.306 612.291 550.692 614.948L537 673.904H530.256L533.73 616.378L514.826 607.489L530.051 597.271Z" fill="url(#paint8_linear)"/>
<path d="M557.847 582.046C558.256 581.229 558.46 580.309 558.256 579.492C556.518 571.011 542.724 550.678 542.008 549.758C540.986 548.43 535.673 547.306 535.673 547.306L535.06 561.305L547.117 577.346C547.935 578.47 548.139 579.799 547.628 581.127L538.534 604.117L544.358 605.752L557.847 582.046Z" fill="#44B2AB"/>
<path d="M508.797 528.608C508.388 529.936 507.775 531.367 506.549 531.775C505.527 532.082 504.505 531.469 503.586 530.958C503.075 530.651 502.564 530.243 502.564 529.63C502.462 529.119 502.768 528.71 502.973 528.199C503.892 526.564 504.812 524.827 506.038 523.499C507.162 522.273 509.206 520.229 510.33 522.375C511.045 523.703 509.206 527.177 508.797 528.608Z" fill="#002E57"/>
<path d="M503.587 604.219C503.587 606.875 501.441 609.123 498.682 609.123C496.026 609.123 493.778 606.978 493.778 604.219C493.778 601.46 495.923 599.314 498.682 599.314C501.441 599.416 503.587 601.562 503.587 604.219Z" fill="#EEBCC5"/>
<path d="M532.605 515.018C530.561 509.807 519.423 507.968 519.321 507.968C519.219 507.968 507.978 509.807 506.037 515.018C503.993 520.331 498.066 535.045 498.271 539.132C498.475 543.117 505.832 547.204 505.832 547.204H512.577C512.577 547.204 502.562 540.46 501.541 537.395C500.519 534.432 504.3 531.162 505.321 530.345C509.511 523.192 513.598 518.799 516.255 516.346C517.992 514.712 520.751 514.712 522.488 516.346C525.145 518.799 529.233 523.192 533.422 530.345C534.444 531.162 538.123 534.432 537.203 537.395C536.181 540.358 527.189 547.102 527.189 547.102H532.911C532.911 547.102 540.166 543.117 540.473 539.03C540.677 535.045 534.648 520.229 532.605 515.018Z" fill="#44B2AB"/>
<path d="M546.095 605.138C546.299 602.481 544.255 600.131 541.496 600.029C538.84 599.825 536.489 601.868 536.387 604.627C536.183 607.284 538.227 609.634 540.985 609.736C543.642 609.838 545.993 607.795 546.095 605.138Z" fill="#EEBCC5"/>
<path d="M504.915 673.904L505.835 682.487C505.835 682.487 497.149 696.894 493.675 697.303C490.201 697.609 491.733 691.581 493.675 688.822C495.616 686.063 499.499 680.239 499.499 680.239L500.93 674.007H504.915V673.904Z" fill="#50ECE2"/>
<path d="M531.48 673.904L530.56 682.487C530.56 682.487 539.246 696.894 542.72 697.303C546.195 697.609 544.662 691.581 542.72 688.822C540.779 686.063 536.896 680.239 536.896 680.239L535.465 674.007H531.48V673.904Z" fill="#50ECE2"/>
<path d="M498.174 609.96H542.42C544.054 609.96 545.587 608.836 545.894 607.201L549.675 591.159C550.186 588.094 547.835 585.233 544.668 585.233L493.984 585.641C490.817 585.641 488.466 588.502 489.079 591.67L494.7 607.609C495.313 609.04 496.641 609.96 498.174 609.96Z" fill="white"/>
<path d="M518.816 603.81C521.299 603.81 523.312 601.98 523.312 599.723C523.312 597.465 521.299 595.635 518.816 595.635C516.333 595.635 514.32 597.465 514.32 599.723C514.32 601.98 516.333 603.81 518.816 603.81Z" fill="#44B2AB"/>
</g>
<defs>
<filter id="filter0_d" x="236.517" y="592.818" width="557.108" height="54.9405" filterUnits="userSpaceOnUse" color-interpolation-filters="sRGB">
<feFlood flood-opacity="0" result="BackgroundImageFix"/>
<feColorMatrix in="SourceAlpha" type="matrix" values="0 0 0 0 0 0 0 0 0 0 0 0 0 0 0 0 0 0 127 0"/>
<feOffset dy="4"/>
<feGaussianBlur stdDeviation="10"/>
<feColorMatrix type="matrix" values="0 0 0 0 0.0365407 0 0 0 0 0.274495 0 0 0 0 0.259353 0 0 0 0.57 0"/>
<feBlend mode="normal" in2="BackgroundImageFix" result="effect1_dropShadow"/>
<feBlend mode="normal" in="SourceGraphic" in2="effect1_dropShadow" result="shape"/>
</filter>
<filter id="filter1_d" x="273.039" y="342.688" width="484.065" height="290.538" filterUnits="userSpaceOnUse" color-interpolation-filters="sRGB">
<feFlood flood-opacity="0" result="BackgroundImageFix"/>
<feColorMatrix in="SourceAlpha" type="matrix" values="0 0 0 0 0 0 0 0 0 0 0 0 0 0 0 0 0 0 127 0"/>
<feOffset dy="4"/>
<feGaussianBlur stdDeviation="10"/>
<feColorMatrix type="matrix" values="0 0 0 0 0.0365407 0 0 0 0 0.274495 0 0 0 0 0.259353 0 0 0 0.57 0"/>
<feBlend mode="normal" in2="BackgroundImageFix" result="effect1_dropShadow"/>
<feBlend mode="normal" in="SourceGraphic" in2="effect1_dropShadow" result="shape"/>
</filter>
<filter id="filter2_d" x="324.574" y="502.188" width="118.308" height="209.749" filterUnits="userSpaceOnUse" color-interpolation-filters="sRGB">
<feFlood flood-opacity="0" result="BackgroundImageFix"/>
<feColorMatrix in="SourceAlpha" type="matrix" values="0 0 0 0 0 0 0 0 0 0 0 0 0 0 0 0 0 0 127 0"/>
<feOffset dy="4"/>
<feGaussianBlur stdDeviation="5"/>
<feColorMatrix type="matrix" values="0 0 0 0 0 0 0 0 0 0.362445 0 0 0 0 0.339381 0 0 0 0.25 0"/>
<feBlend mode="normal" in2="BackgroundImageFix" result="effect1_dropShadow"/>
<feBlend mode="normal" in="SourceGraphic" in2="effect1_dropShadow" result="shape"/>
</filter>
<filter id="filter3_d" x="595.127" y="502.275" width="118.206" height="209.737" filterUnits="userSpaceOnUse" color-interpolation-filters="sRGB">
<feFlood flood-opacity="0" result="BackgroundImageFix"/>
<feColorMatrix in="SourceAlpha" type="matrix" values="0 0 0 0 0 0 0 0 0 0 0 0 0 0 0 0 0 0 127 0"/>
<feOffset dy="4"/>
<feGaussianBlur stdDeviation="5"/>
<feColorMatrix type="matrix" values="0 0 0 0 0 0 0 0 0 0.362445 0 0 0 0 0.339381 0 0 0 0.25 0"/>
<feBlend mode="normal" in2="BackgroundImageFix" result="effect1_dropShadow"/>
<feBlend mode="normal" in="SourceGraphic" in2="effect1_dropShadow" result="shape"/>
</filter>
<filter id="filter4_d" x="468.966" y="501.968" width="99.3696" height="209.346" filterUnits="userSpaceOnUse" color-interpolation-filters="sRGB">
<feFlood flood-opacity="0" result="BackgroundImageFix"/>
<feColorMatrix in="SourceAlpha" type="matrix" values="0 0 0 0 0 0 0 0 0 0 0 0 0 0 0 0 0 0 127 0"/>
<feOffset dy="4"/>
<feGaussianBlur stdDeviation="5"/>
<feColorMatrix type="matrix" values="0 0 0 0 0 0 0 0 0 0.362445 0 0 0 0 0.339381 0 0 0 0.25 0"/>
<feBlend mode="normal" in2="BackgroundImageFix" result="effect1_dropShadow"/>
<feBlend mode="normal" in="SourceGraphic" in2="effect1_dropShadow" result="shape"/>
</filter>
<radialGradient id="paint0_radial" cx="0" cy="0" r="1" gradientUnits="userSpaceOnUse" gradientTransform="translate(514.434 494.243) rotate(90) scale(118.332 217.729)">
<stop stop-color="#094642"/>
<stop offset="1" stop-color="#000404"/>
</radialGradient>
<linearGradient id="paint1_linear" x1="391.748" y1="666.506" x2="391.748" y2="697.937" gradientUnits="userSpaceOnUse">
<stop stop-color="#002E57"/>
<stop offset="1" stop-color="#001527"/>
</linearGradient>
<linearGradient id="paint2_linear" x1="381.519" y1="667.031" x2="381.519" y2="696.172" gradientUnits="userSpaceOnUse">
<stop stop-color="#002E57"/>
<stop offset="1" stop-color="#001527"/>
</linearGradient>
<linearGradient id="paint3_linear" x1="391.531" y1="536.4" x2="391.531" y2="604.757" gradientUnits="userSpaceOnUse">
<stop stop-color="#002E57"/>
<stop offset="1" stop-color="#001527"/>
</linearGradient>
<linearGradient id="paint4_linear" x1="417.775" y1="537.219" x2="417.775" y2="602.817" gradientUnits="userSpaceOnUse">
<stop stop-color="#002E57"/>
<stop offset="1" stop-color="#001527"/>
</linearGradient>
<linearGradient id="paint5_linear" x1="646.264" y1="666.752" x2="646.264" y2="698.012" gradientUnits="userSpaceOnUse">
<stop stop-color="#002E57"/>
<stop offset="1" stop-color="#001527"/>
</linearGradient>
<linearGradient id="paint6_linear" x1="656.514" y1="667.262" x2="656.514" y2="696.245" gradientUnits="userSpaceOnUse">
<stop stop-color="#002E57"/>
<stop offset="1" stop-color="#001527"/>
</linearGradient>
<linearGradient id="paint7_linear" x1="502.225" y1="597.271" x2="502.225" y2="673.904" gradientUnits="userSpaceOnUse">
<stop stop-color="#002E57"/>
<stop offset="1" stop-color="#001527"/>
</linearGradient>
<linearGradient id="paint8_linear" x1="532.842" y1="597.271" x2="532.842" y2="673.904" gradientUnits="userSpaceOnUse">
<stop stop-color="#002E57"/>
<stop offset="1" stop-color="#001527"/>
</linearGradient>
</defs>
</svg>
