<svg xmlns="http://www.w3.org/2000/svg" xmlns:xlink="http://www.w3.org/1999/xlink" version="1.1" id="Layer_1" x="0px" y="0px" viewBox="0 0 1080 1080" style="enable-background:new 0 0 1080 1080;" xml:space="preserve">
<style type="text/css">
	.st0{fill:#F2F2F2;}
	.st1{fill:none;stroke:#D3D3D3;stroke-miterlimit:10;stroke-dasharray:11.9264,11.9264;}
	.st2{fill:none;stroke:#DCF2FF;stroke-width:5;stroke-miterlimit:10;}
	.st3{fill:#DCF2FF;}
	.st4{fill:#0D4972;}
	.st5{fill:#2A94F4;}
	.st6{fill:#F9F9F9;}
	.st7{fill:#FFBE55;}
	.st8{fill:#0069FF;}
	.st9{fill:#FFE3CA;}
	.st10{fill:#0E538C;}
	.st11{fill:#1A87D8;}
	.st12{fill:#B0E1FF;}
	.st13{fill:#CCE9FF;}
</style>
<path class="st0" d="M1039.1,1004.9H40.9c-5.9,0-10.7-4.8-10.7-10.7v-46.5c0-5.9,4.8-10.7,10.7-10.7h998.3c5.9,0,10.7,4.8,10.7,10.7  v46.5C1049.8,1000.1,1045,1004.9,1039.1,1004.9z"/>
<g>
	<circle class="st1" cx="847" cy="193" r="102.5"/>
</g>
<path class="st2" d="M1005.7,243.1v549c0,6.6-5.4,12-12,12h-844c-6.6,0-12-5.4-12-12v-549c0-6.6,5.4-12,12-12h844  C1000.3,231.1,1005.7,236.5,1005.7,243.1z"/>
<path class="st3" d="M964,205v549c0,6.6-5.4,12-12,12H108c-6.6,0-12-5.4-12-12V205c0-6.6,5.4-12,12-12h844  C958.6,193,964,198.4,964,205z"/>
<g>
	<path class="st4" d="M229.3,272.7c37.2,0,67.5,30.3,67.5,67.5s-30.3,67.5-67.5,67.5s-67.5-30.3-67.5-67.5S192.1,272.7,229.3,272.7    M229.3,250.9c-49.4,0-89.4,40-89.4,89.4s40,89.4,89.4,89.4c49.4,0,89.4-40,89.4-89.4S278.7,250.9,229.3,250.9L229.3,250.9z"/>
	<path class="st5" d="M229.3,272.7 M229.3,250.9L229.3,250.9c-49.4,0-89.4,40-89.4,89.4s40,89.4,89.4,89.4c49.4,0,89.4-40,89.4-89.4   h-21.9c0,37.2-30.3,67.5-67.5,67.5s-67.5-30.3-67.5-67.5s30.3-67.5,67.5-67.5V250.9z"/>
</g>
<g>
	<path class="st4" d="M462.3,355.2c2.3,29.7-20,55.8-49.8,58.1c-29.7,2.3-55.8-20-58.1-49.8s20-55.8,49.8-58.1   C433.9,303.1,460,325.4,462.3,355.2 M479.7,353.8c-3.1-39.4-37.5-68.9-76.9-65.9c-39.4,3.1-68.9,37.5-65.9,76.9   c3.1,39.4,37.5,68.9,76.9,65.9S482.8,393.3,479.7,353.8L479.7,353.8z"/>
	<path class="st5" d="M462.3,355.2 M479.7,353.8L479.7,353.8c-3.1-39.4-37.5-68.9-76.9-65.9c-39.4,3.1-68.9,37.5-65.9,76.9   c3.1,39.4,37.5,68.9,76.9,65.9l-1.4-17.5c-29.7,2.3-55.8-20-58.1-49.8s20-55.8,49.8-58.1c29.7-2.3,55.8,20,58.1,49.8L479.7,353.8z"/>
</g>
<rect x="509.5" y="318.5" class="st6" width="406.5" height="13.3"/>
<rect x="509.5" y="350.2" class="st6" width="265.8" height="13"/>
<rect x="509.5" y="382" class="st6" width="406.5" height="13"/>
<rect x="509.5" y="413.7" class="st6" width="406.5" height="13"/>
<rect x="744.5" y="482.8" class="st5" width="171.5" height="247.1"/>
<g>
	<path class="st6" d="M615.3,607.5l68.9-69c17.1,19.2,27.1,43.3,28.6,69H615.3z"/>
	<path class="st5" d="M518.3,523.4c20.9-18.6,47.5-28.8,75.6-28.8c28.2,0,54.8,10.2,75.6,28.7L593.9,599L518.3,523.4z"/>
	<path class="st7" d="M698.3,629c-3,55.6-49.1,99.8-105.5,99.8c-58.4,0-105.7-47.3-105.7-105.7c0-27.1,10.2-51.9,27-70.6l0.1,0.1   l76.4,76.4L698.3,629z"/>
</g>
<g>
	<rect x="136.8" y="501.1" class="st8" width="160.4" height="16.4"/>
	<rect x="136.8" y="529.9" class="st6" width="271.5" height="5.7"/>
	<rect x="136.8" y="545.6" class="st6" width="271.5" height="5.7"/>
	<rect x="136.8" y="561.3" class="st6" width="271.5" height="5.7"/>
	<rect x="136.8" y="577" class="st6" width="271.5" height="5.7"/>
	<rect x="136.8" y="592.6" class="st6" width="140.3" height="5.7"/>
</g>
<g>
	<rect x="136.8" y="627.9" class="st8" width="160.4" height="16.4"/>
	<rect x="136.8" y="656.8" class="st6" width="271.5" height="5.7"/>
	<rect x="136.8" y="672.5" class="st6" width="271.5" height="5.7"/>
	<rect x="136.8" y="688.1" class="st6" width="271.5" height="5.7"/>
	<rect x="136.8" y="703.8" class="st6" width="271.5" height="5.7"/>
	<rect x="136.8" y="719.5" class="st6" width="140.3" height="5.7"/>
</g>
<g>
	<path class="st9" d="M394.4,427v-11c0,0-4-11-8-19c3,1,8,8,8,8s2-17,0-21c13,11,13,15,13,15l-5,18l1,14L394.4,427z"/>
	<path class="st9" d="M206.4,684l-6,11c0,0-12,8-12,12s0,9,0,9l9,11c0,0,8-22,9-21c1,5,1,11,3,12c1-6-2-21,2-26S206.4,684,206.4,684   z"/>
	
		<rect x="204.3" y="922.1" transform="matrix(0.9969 7.825331e-02 -7.825331e-02 0.9969 74.3406 -13.8072)" class="st9" width="18" height="39"/>
	<path class="st4" d="M202.8,960.4c-7.6,7.4-13.1,13-13.4,17c6.6,5.5,28.2,11.2,38.6,6c2.1-13.9-7.3-21.6-7.3-21.6L202.8,960.4z"/>
	<rect x="311.4" y="922" class="st9" width="18" height="39"/>
	<path class="st4" d="M317.9,641.5c12,37,58,188,19,297c-16.5,11.5-34.5,0.5-34.5,0.5s-40.5-160.5-29.5-225.5s12.5-72,12.5-72H317.9   z"/>
	<rect x="282.9" y="493.5" class="st9" width="14.5" height="31"/>
	<path class="st9" d="M314.8,485.9c0,14.7-5.6,26.7-17.5,26.7c-11.9,0-25.5-11.9-25.5-26.7c0-14.7,9.6-26.7,21.5-26.7   S314.8,471.2,314.8,485.9z"/>
	<path class="st10" d="M310.4,459.6c-3.2,12.7-5.6,42.2-23.1,52.5c-11.1,5.6-43.8-23.9-27.9-50.1   C275.4,435.8,308.8,452.5,310.4,459.6z"/>
	<circle class="st10" cx="270.6" cy="454.1" r="23.1"/>
	<path class="st7" d="M282.9,524.5c-18,2-44,15-44,15s-30,114-36,149c9,6,12,9,12,9l34-112l13,56h56l13-72c0,0,84-41,77-142   c-16-7-16-7-16-7s4,107-74,105C317.9,525.5,292.9,520.5,282.9,524.5z"/>
	<path class="st4" d="M262,641.5c-35,61-79,216-63,301c16.5,13.5,30,0,30,0s60-131,59-225c4-56,0-76,0-76H262z"/>
	<path class="st4" d="M311.4,961c-7,8-12,14-12,18c7,5,29,9,39,3c1-14-9-21-9-21H311.4z"/>
</g>
<g>
	<g>
		<g>
			<g>
				<path class="st11" d="M980.8,874.2c-8.2-38.5-33.7-72.9-68-92.1c18.4,34.7,40.3,67.4,65.5,97.6L980.8,874.2z"/>
			</g>
			<g>
				<path class="st5" d="M990,888.7c-32.7-45.7-49.1-102.9-45.6-159c21.2,51.8,37.2,105.7,47.7,160.6L990,888.7z"/>
			</g>
			<g>
				<path class="st11" d="M980.7,890.3c-1-28.1-2-56.5,2.4-84.3c4.4-27.8,14.6-55.3,33.5-76.2c2.9,57.6-11.1,115.9-39.6,166      L980.7,890.3z"/>
			</g>
			<g>
				<path class="st12" d="M982,892.8c-18.4-53.2-15.4-113.4,8.2-164.5c14.8,53.4,1.7,110-11.4,163.8L982,892.8z"/>
			</g>
			<g>
				<path class="st5" d="M984.5,873.1c5.1-46.7,36.2-89.6,79-108.9c-17.3,46.5-47,88.4-85.1,120.3L984.5,873.1z"/>
			</g>
		</g>
		<path class="st13" d="M1028.5,864.9l-5.3,90.6c0,4.4-3.6,7.9-7.9,7.9h-62.8c-4.4,0-7.9-3.6-7.9-7.9l-1.2-20.5l-4.1-70.1    c0-4.4,3.6-7.9,7.9-7.9h73.4c2.9,0,5.4,1.5,6.8,3.8v0C1028.1,862,1028.5,863.4,1028.5,864.9z"/>
		<g>
			<path class="st13" d="M1028.5,864.9l-5.3,90.6c0,4.4-3.6,7.9-7.9,7.9h-62.8c-4.4,0-7.9-3.6-7.9-7.9l-1.2-20.5     c29.3-8.4,59.5-44.6,84-74.2C1028.1,862,1028.5,863.4,1028.5,864.9z"/>
		</g>
	</g>
	<g>
		<g>
			<g>
				<path class="st11" d="M97.4,905c-5.4-25.2-22-47.7-44.5-60.3c12,22.7,26.4,44.1,42.9,63.9L97.4,905z"/>
			</g>
			<g>
				<path class="st5" d="M103.4,914.5C82,884.6,71.2,847.2,73.5,810.4c13.9,33.9,24.4,69.2,31.2,105.2L103.4,914.5z"/>
			</g>
			<g>
				<path class="st11" d="M97.3,915.5c-0.7-18.4-1.3-37,1.6-55.2s9.6-36.2,22-49.9c1.9,37.7-7.2,75.9-26,108.7L97.3,915.5z"/>
			</g>
			<g>
				<path class="st12" d="M98.1,917.2c-12.1-34.8-10.1-74.3,5.4-107.7c9.7,34.9,1.1,72-7.5,107.2L98.1,917.2z"/>
			</g>
			<g>
				<path class="st5" d="M99.7,904.3c3.3-30.5,23.7-58.7,51.7-71.3c-11.4,30.5-30.8,57.9-55.7,78.8L99.7,904.3z"/>
			</g>
		</g>
		<path class="st13" d="M128.6,898.9l-3.5,59.3c0,2.9-2.3,5.2-5.2,5.2H78.8c-2.9,0-5.2-2.3-5.2-5.2l-0.8-13.4l-2.7-45.9    c0-2.9,2.3-5.2,5.2-5.2h48.1c1.9,0,3.5,1,4.4,2.5v0C128.3,897,128.6,897.9,128.6,898.9z"/>
		<g>
			<path class="st13" d="M128.6,898.9l-3.5,59.3c0,2.9-2.3,5.2-5.2,5.2H78.8c-2.9,0-5.2-2.3-5.2-5.2l-0.8-13.4     c19.2-5.5,39-29.2,55-48.6C128.3,897,128.6,897.9,128.6,898.9z"/>
		</g>
	</g>
</g>
</svg>