<svg id="Layer_1" enable-background="new 0 0 512 512" height="512" viewBox="0 0 512 512" width="512" xmlns="http://www.w3.org/2000/svg"><g><path d="m456.783 425.386-401.558.012c-11.436 0-20.706-9.27-20.707-20.706l-.008-270.73c0-11.436 9.27-20.706 20.705-20.707l401.558-.012c11.436 0 20.706 9.27 20.707 20.706l.008 270.73c.001 11.436-9.269 20.707-20.705 20.707z" fill="#4380a0"/><path d="m477.489 404.578c0 11.487-9.22 20.81-20.604 20.81h-30.905c11.383 0 20.604-9.323 20.604-20.81l-.01-270.524c0-11.477-9.189-20.779-20.552-20.81h30.854c11.383 0 20.604 9.313 20.604 20.81z" fill="#3b7191"/><path d="m446.583 387.529c0 2.21-1.791 4.002-4 4.002h-26.905l-346.251.01c-2.209 0-4-1.792-4-4.002l-.01-239.361c0-2.21 1.791-4.002 4-4.002l346.251-.01h26.906c2.209 0 4 1.792 4 4.002z" fill="#bbf7ff"/><path d="m442.583 391.531h-26.905l-.01-247.366h26.906c2.209 0 4 1.792 4 4.002l.01 239.361c-.001 2.211-1.791 4.003-4.001 4.003z" fill="#8bf0ff"/><path d="m497.574 474h-483.148c-7.967 0-14.426-6.459-14.426-14.426v-22.684c0-7.967 6.459-14.426 14.426-14.426h483.147c7.967 0 14.426 6.459 14.426 14.426v22.684c.001 7.967-6.458 14.426-14.425 14.426z" fill="#a9dbf5"/><path d="m497.577 422.463h-30.905c7.965 0 14.423 6.461 14.423 14.43v22.676c0 7.97-6.457 14.43-14.423 14.43h30.905c7.965 0 14.423-6.461 14.423-14.43v-22.676c0-7.969-6.457-14.43-14.423-14.43z" fill="#88c3e0"/><path d="m256 281.253h-145.664c-3.188 0-5.773-2.585-5.773-5.773v-179.411c0-3.188 2.585-5.773 5.773-5.773h145.664z" fill="#f75632"/><path d="m401.664 281.253h-145.664v-190.957h145.664c3.188 0 5.773 2.585 5.773 5.773v179.411c0 3.188-2.585 5.773-5.773 5.773z" fill="#e33629"/><path d="m256 281.253-121.268-41.958c-2.325-.805-3.885-2.995-3.885-5.456v-190.061c0-3.968 3.91-6.754 7.659-5.457l117.494 40.654z" fill="#f3f3f3"/><path d="m256 281.253 121.268-41.958c2.325-.805 3.885-2.995 3.885-5.456v-190.061c0-3.968-3.91-6.754-7.659-5.457l-117.494 40.654z" fill="#e4e4e4"/><path d="m288.725 447.201h-65.45c-6.391 0-11.573-5.181-11.573-11.573v-13.165h88.596v13.165c0 6.392-5.182 11.573-11.573 11.573z" fill="#88c3e0"/><g fill="#4380a0"><path d="m357.484 311.257h-202.968c-4.142 0-7.5 3.359-7.5 7.504s3.358 7.504 7.5 7.504h202.969c4.143 0 7.5-3.359 7.5-7.504s-3.358-7.504-7.501-7.504z"/><path d="m286.146 344.049h-131.63c-4.142 0-7.5 3.359-7.5 7.504s3.358 7.504 7.5 7.504h131.63c4.143 0 7.5-3.359 7.5-7.504s-3.358-7.504-7.5-7.504z"/></g></g></svg>