
        <svg xmlns="http://www.w3.org/2000/svg" xmlns:xlink="http://www.w3.org/1999/xlink" version="1.1" width="3168.5393258426966" height="1012.8981779034671" viewBox="0 0 3168.5393258426966 1012.8981779034671">
			
			<g transform="scale(8.426966292134832) translate(10, 10)">
				<defs id="SvgjsDefs3922"><linearGradient id="SvgjsLinearGradient3933"><stop id="SvgjsStop3934" stop-color="#ef4136" offset="0"/><stop id="SvgjsStop3935" stop-color="#fbb040" offset="1"/></linearGradient><linearGradient id="SvgjsLinearGradient3936"><stop id="SvgjsStop3937" stop-color="#ef4136" offset="0"/><stop id="SvgjsStop3938" stop-color="#fbb040" offset="1"/></linearGradient><linearGradient id="SvgjsLinearGradient3939"><stop id="SvgjsStop3940" stop-color="#ef4136" offset="0"/><stop id="SvgjsStop3941" stop-color="#fbb040" offset="1"/></linearGradient></defs><g id="SvgjsG3923" featureKey="9id2mP-0" transform="matrix(0.2056737277045047,0,0,0.2056737277045047,-2.628715942036263,-2.5847018160899773)" fill="#000"><g xmlns="http://www.w3.org/2000/svg"><path d="M494.985,12.567H16.781c-2.209,0-4,1.791-4,4v360.896c0,2.209,1.791,4,4,4h121.448c0.055,0,0.106-0.014,0.161-0.017   c2.283,4.259,4.798,8.436,7.542,12.504l-27.886,38.075c-1.162,1.586-0.999,3.78,0.384,5.178l18.046,18.229   c1.405,1.417,3.638,1.585,5.236,0.391l37.599-28.085c15.371,10.949,33.692,18.594,53.327,22.249l6.688,46.317   c0.284,1.969,1.971,3.429,3.959,3.429h25.723c1.987,0,3.674-1.459,3.959-3.426l6.716-46.32   c19.462-3.622,37.185-11.094,52.767-22.246l37.574,28.081c1.599,1.195,3.832,1.028,5.236-0.39l18.055-18.229   c1.384-1.396,1.547-3.591,0.386-5.177l-27.829-38.027c2.569-3.67,4.949-7.506,7.143-11.476l122.008-1.061   c2.195-0.02,3.965-1.805,3.965-4V16.567C498.985,14.358,497.194,12.567,494.985,12.567z M490.985,20.567v69.415H205.076   l-34.552-22.591c-0.651-0.425-1.412-0.652-2.189-0.652H20.781V20.567H490.985z M357.702,396.384l27.526,37.614l-13.204,13.332   l-37.159-27.771c-1.422-1.063-3.377-1.061-4.797,0.006c-15.876,11.926-34.24,19.677-54.581,23.036   c-1.72,0.283-3.058,1.647-3.308,3.372l-6.635,45.759h-18.797l-6.607-45.756c-0.249-1.726-1.587-3.091-3.307-3.375   c-20.513-3.388-39.583-11.354-55.147-23.037c-1.42-1.066-3.374-1.068-4.795-0.006l-37.179,27.771l-13.197-13.331l27.549-37.614   c1.014-1.384,1.032-3.261,0.045-4.664c-11.957-17.002-19.677-36.07-22.326-55.145c-0.243-1.746-1.599-3.128-3.341-3.401   l-45.846-7.206v-5.279h94.437c0.994,19.502,9.236,37.983,23.471,52.421c14.787,14.925,34.549,23.144,55.652,23.143   c0.006,0,0.015,0,0.021,0c21.095-0.006,40.845-8.225,55.614-23.147c13.93-14.101,21.992-32.585,22.95-52.416h94.97v5.278   l-45.864,7.207c-1.704,0.268-3.045,1.598-3.325,3.3c-3.367,20.398-11.256,39.479-22.813,55.175   C356.673,393.057,356.67,394.974,357.702,396.384z M326.722,320.689c-0.949,17.709-8.182,34.2-20.619,46.792   c-13.253,13.39-30.983,20.767-49.927,20.771c-0.007,0-0.012,0-0.019,0c-18.951,0-36.697-7.377-49.963-20.767   c-12.738-12.92-20.15-29.408-21.14-46.797H326.722z M377.101,374.487c4.951-10.597,8.612-22,10.813-33.854l46.419-7.294   c1.945-0.306,3.379-1.981,3.379-3.951v-8.701h31.028c2.209,0,4-1.791,4-4s-1.791-4-4-4H43.028c-2.209,0-4,1.791-4,4s1.791,4,4,4   h31.568v8.701c0,1.97,1.434,3.646,3.379,3.951l46.331,7.283c1.827,11.114,5.26,22.178,10.132,32.84H20.781V74.739h146.363   l34.552,22.591c0.651,0.425,1.412,0.652,2.189,0.652h287.101v275.515L377.101,374.487z"/><path d="M450.129,69.751c8.237,0,14.938-6.753,14.938-15.054c0-8.286-6.701-15.027-14.938-15.027   c-8.243,0-14.949,6.741-14.949,15.027C435.18,62.998,441.886,69.751,450.129,69.751z M450.129,47.67   c3.826,0,6.938,3.152,6.938,7.027c0,3.89-3.112,7.054-6.938,7.054c-3.832,0-6.949-3.164-6.949-7.054   C443.18,50.822,446.297,47.67,450.129,47.67z"/><path d="M411.819,69.751c8.688,0,15.495-6.612,15.495-15.054c0-8.427-6.807-15.027-15.495-15.027   c-8.237,0-14.939,6.741-14.939,15.027C396.88,62.998,403.582,69.751,411.819,69.751z M411.819,47.67   c4.203,0,7.495,3.087,7.495,7.027c0,4.021-3.223,7.054-7.495,7.054c-3.826,0-6.939-3.164-6.939-7.054   C404.88,50.888,408.058,47.67,411.819,47.67z"/><path d="M365.853,186.941h106.163c2.209,0,4-1.791,4-4v-34.276c0-2.209-1.791-4-4-4H365.853c-2.209,0-4,1.791-4,4v34.276   C361.853,185.15,363.644,186.941,365.853,186.941z M369.853,152.665h98.163v26.276h-98.163V152.665z"/><path d="M365.853,247.721h106.163c2.209,0,4-1.791,4-4V208.91c0-2.209-1.791-4-4-4H365.853c-2.209,0-4,1.791-4,4v34.811   C361.853,245.93,363.644,247.721,365.853,247.721z M369.853,212.91h98.163v26.811h-98.163V212.91z"/><path d="M223.598,135.255H64.897c-2.209,0-4,1.791-4,4s1.791,4,4,4h158.701c2.209,0,4-1.791,4-4S225.807,135.255,223.598,135.255z"/><path d="M223.598,166.775H64.897c-2.209,0-4,1.791-4,4s1.791,4,4,4h158.701c2.209,0,4-1.791,4-4S225.807,166.775,223.598,166.775z"/><path d="M156.48,201.708c0-2.209-1.791-4-4-4H64.897c-2.209,0-4,1.791-4,4s1.791,4,4,4h87.583   C154.689,205.708,156.48,203.917,156.48,201.708z"/><path d="M223.598,229.229h-51.974c-2.209,0-4,1.791-4,4s1.791,4,4,4h51.974c2.209,0,4-1.791,4-4S225.807,229.229,223.598,229.229z"/><path d="M223.598,260.133H64.897c-2.209,0-4,1.791-4,4s1.791,4,4,4h158.701c2.209,0,4-1.791,4-4S225.807,260.133,223.598,260.133z"/><path d="M92.817,229.229c-2.209,0-4,1.791-4,4s1.791,4,4,4h51.974c2.209,0,4-1.791,4-4s-1.791-4-4-4H92.817z"/><path d="M192.419,205.708c2.209,0,4-1.791,4-4s-1.791-4-4-4h-27.914c-2.209,0-4,1.791-4,4s1.791,4,4,4H192.419z"/><path d="M479.135,265.686H358.198c-2.209,0-4,1.791-4,4s1.791,4,4,4h120.937c2.209,0,4-1.791,4-4S481.344,265.686,479.135,265.686z   "/></g></g><g id="SvgjsG3924" featureKey="textGroupContainer" transform="matrix(1,0,0,1,355,1)" fill="#000"><rect xmlns="http://www.w3.org/2000/svg" y="0" height="1" width="1" opacity="0"/><rect xmlns="http://www.w3.org/2000/svg" y="0" x="-235" width="3" height="98"/></g><g id="SvgjsG3925" featureKey="zfl5BF-0" transform="matrix(1.760282156555148,0,0,1.760282156555148,135.13232293130383,11.134583919939608)" fill="#000"><path d="M17.567 12.0424 c0 1.0081 -0.32878 1.759 -0.8114 2.2982 c0.48524 0.53376 0.8113 1.2642 0.8113 2.2318 c0 2.523 -2.0564 3.4388 -3.4388 3.4388 l-12.499 0 l0 -11.408 l12.237 0 c1.4875 0 3.7004 0.9158 3.7004 3.4388 z M14.778 17.4818 c0.21816 -0.12072 0.44116 -0.32318 0.44102 -0.90964 c0 -0.47164 -0.15969 -0.72696 -0.56946 -0.91072 c-0.3725 -0.16701 -0.77926 -0.18049 -0.78304 -0.18049 l-9.8895 0 l0 2.1822 l10.141 0 c0.1024 -0.0033984 0.40832 -0.041972 0.66036 -0.18139 z M14.778 12.952 c0.21816 -0.12072 0.44116 -0.32304 0.44116 -0.90964 c0 -0.47164 -0.15969 -0.72696 -0.56946 -0.91072 c-0.3725 -0.16701 -0.77926 -0.18049 -0.78304 -0.18049 l-9.8895 0 l0 2.1822 l10.14 0 c0.1024 -0.0033984 0.40832 -0.041972 0.66036 -0.18139 z M34.917 17.557 l1.162 -0.017422 l0.034786 2.3242 l-1.1621 0.017402 c-0.18088 0.002754 -0.38542 0.0058984 -0.6087 0.0058984 c-1.614 0 -4.2026 -0.16008 -5.8378 -1.7712 c-0.72798 -0.71726 -1.1865 -1.629 -1.3698 -2.72 l-4.2054 0 l-0.016602 4.4896 l-2.3246 -0.0086328 l0.037402 -10.127 l0 -1.1635 l0.0043164 0 l0 -0.0043164 l1.1612 0.0043164 l10.951 0 c1.4728 0 3.6638 0.90678 3.6638 3.4048 c0 2.4982 -2.0362 3.405 -3.4048 3.405 l-3.4826 0 c0.12543 0.4252 0.32842 0.77924 0.61734 1.064 c1.1685 1.151 3.608 1.1146 4.7804 1.0969 z M22.9514 13.0714 l10.041 -0.000019531 c0.10148 -0.0035352 0.40426 -0.041718 0.6538 -0.17971 c0.21608 -0.11955 0.43686 -0.32006 0.43686 -0.90076 c0 -0.46692 -0.15799 -0.71972 -0.56382 -0.90166 c-0.36882 -0.16531 -0.77152 -0.17865 -0.77532 -0.17865 l-9.7922 0 l0 2.1608 z M42.0938 20.02461 l-2.3246 0 l0 -11.295 l2.3246 0 l0 11.295 z M61.387 10.9512 l-13.59 0.000019531 l0 2.1863 l9.0642 0.03375 l-0.0086328 2.3478 l-9.0556 -0.03375 l0 2.1782 l13.59 0 l0 2.3477 l-15.938 0 l0 -11.407 l15.938 0 l0 2.3476 z M80.667 10.9648 l-13.59 0 l0 2.1824 l9.0599 0 l0 2.3476 l-9.0599 0 l0 4.5299 l-2.3477 0 l0 -11.407 l15.938 0 l0 2.3476 z M86.357 17.619 l13.59 0 l0 2.3477 l-15.938 0 l0 -11.407 l2.3477 0 l0 9.0597 z M115.23 8.445 l0.016758 1.1737 c0.01832 1.2629 -0.49072 2.489 -1.4333 3.4524 c-0.88466 0.90428 -2.5122 1.966 -5.367 2.2142 l-0.036758 4.6262 l-2.3476 -0.016094 l0.036484 -4.5994 c-2.2324 -0.18141 -4.09 -0.92992 -5.3086 -2.1572 c-0.97334 -0.9804 -1.4991 -2.2306 -1.4804 -3.5202 l0.017129 -1.1737 l2.3474 0.03414 l-0.017012 1.1737 c-0.0095508 0.66232 0.26668 1.2959 0.79912 1.832 c0.98028 0.98734 2.6908 1.5237 4.8134 1.507 c2.1676 -0.01582 3.8956 -0.57064 4.8658 -1.5624 c0.50916 -0.5203 0.77322 -1.1346 0.76394 -1.7765 l-0.017012 -1.1737 z"/></g><g id="SvgjsG3926" featureKey="pYXC9J-0" transform="matrix(0.7625220349987154,0,0,0.7625220349987154,136.72719808043084,50.120192614304024)" fill="#000"><path d="M3.9938 20.02461 l-2.3246 0 l0 -11.295 l2.3246 0 l0 11.295 z M22.384999999999998 8.593 l2.3476 0 l0 11.25 l-13.59 -7.098 l0 7.2556 l-2.3477 0 l0 -11.25 l13.59 7.098 l0 -7.2556 z M32.31 11.0046 c-0.21816 0.12059 -0.44118 0.32306 -0.44118 0.90966 c0 0.45724 0.14779 0.70718 0.52734 0.89108 c0.38386 0.18598 0.81196 0.19957 0.83354 0.2001 l8.5334 0.03336 c1.4828 0 3.6956 0.9158 3.6956 3.4388 s-2.0564 3.4388 -3.4388 3.4388 l-12.499 0 l0 -2.3477 l12.488 0 c0.1024 -0.0035352 0.40818 -0.04211 0.66022 -0.18152 c0.21828 -0.12072 0.44128 -0.32318 0.44128 -0.90964 c0 -0.45724 -0.14779 -0.70718 -0.52734 -0.89108 c-0.3827 -0.18547 -0.81038 -0.19947 -0.8343 -0.20012 l-8.5278 -0.03793 l0 0.0045703 c-1.4875 0 -3.7004 -0.9158 -3.7004 -3.4388 s2.0564 -3.4388 3.4388 -3.4388 l12.499 0 l0 2.3477 l-12.488 0 c-0.10229 0.0035352 -0.40834 0.04211 -0.6605 0.18152 z M50.24720000000001 8.475 l15.938 0 l0 2.3477 l-6.7954 0 l0 9.0932 l-2.3476 0 l0 -9.0932 l-6.7946 0 l0 -2.3477 z M75.1594 7.711 l9.1766 12.19 l-2.9508 0 l-2.566 -3.3974 l-7.3197 0 l-2.5286 3.3974 l-2.9177 0 z M73.26020000000001 14.1556 l3.7983 0 l-1.8992 -2.5322 z M100.84980000000002 20.02461 l-2.3246 0 l0 -11.295 l2.3246 0 l0 11.295 z M119.24100000000003 8.593 l2.3476 0 l0 11.25 l-13.59 -7.098 l0 7.2556 l-2.3477 0 l0 -11.25 l13.59 7.098 l0 -7.2556 z M129.16600000000003 11.0046 c-0.21816 0.12059 -0.44118 0.32306 -0.44118 0.90966 c0 0.45724 0.14779 0.70718 0.52734 0.89108 c0.38386 0.18598 0.81196 0.19957 0.83354 0.2001 l8.5334 0.03336 c1.4828 0 3.6956 0.9158 3.6956 3.4388 s-2.0564 3.4388 -3.4388 3.4388 l-12.499 0 l0 -2.3477 l12.488 0 c0.1024 -0.0035352 0.40818 -0.04211 0.66022 -0.18152 c0.21828 -0.12072 0.44128 -0.32318 0.44128 -0.90964 c0 -0.45724 -0.14779 -0.70718 -0.52734 -0.89108 c-0.3827 -0.18547 -0.81038 -0.19947 -0.8343 -0.20012 l-8.5278 -0.03793 l0 0.0045703 c-1.4875 0 -3.7004 -0.9158 -3.7004 -3.4388 s2.0564 -3.4388 3.4388 -3.4388 l12.499 0 l0 2.3477 l-12.488 0 c-0.10229 0.0035352 -0.40834 0.04211 -0.6605 0.18152 z M149.42780000000002 20.02461 l-2.3246 0 l0 -11.295 l2.3246 0 l0 11.295 z M170.01000000000002 14.394400000000001 c-0.019883 1.3657 -0.00015625 4.4302 0.00023438 4.4608 l0.0077148 1.1699 l-7.8979 0 c-2.3734 0 -4.3588 -0.53114 -5.7416 -1.5357 c-1.3856 -1.0067 -2.1486 -2.467 -2.1486 -4.112 c0 -1.3641 0.51466 -2.5964 1.4885 -3.563 c1.3944 -1.3842 3.6104 -2.1058 6.4102 -2.0846 c1.7076 0.012559 6.6666 0.00013672 6.7164 0 l1.1622 -0.0030078 l0.005879 2.3246 l-1.1622 0.0030078 c-0.050098 0.00013672 -5.0206 0.012695 -6.7396 0 c-2.1376 -0.016875 -3.824 0.4851 -4.7556 1.4098 c-0.53204 0.52812 -0.80174 1.1717 -0.80174 1.9133 c0 2.0496 2.1326 3.323 5.5658 3.323 l5.5599 0 c-0.0024804 -0.63696 -0.0043164 -1.4395 -0.0024804 -2.1608 l-4.4771 0 l0 -2.3246 l6.8269 0 z M188.425 8.617 l2.3476 0 l0 11.407 l-2.3476 0 l0 -4.5299 l-11.242 0 l0 4.5299 l-2.3477 0 l0 -11.407 l2.3477 0 l0 4.5299 l11.242 0 l0 -4.5299 z M195.5612 8.475 l15.938 0 l0 2.3477 l-6.7954 0 l0 9.0932 l-2.3476 0 l0 -9.0932 l-6.7946 0 l0 -2.3477 z"/></g><g id="SvgjsG3927" featureKey="pYXC9J-1" transform="matrix(1,0,0,1,138,75)" fill="#000"><path d=""/></g>
			</g>
		</svg>
	